<svg width="146" height="65" viewBox="0 0 146 65" fill="none" xmlns="http://www.w3.org/2000/svg">
<path d="M27.2387 24.8381H28.5633C28.7701 24.3256 28.9739 23.8101 29.1777 23.2977C30.1007 21.0081 31.0867 18.7155 32.1296 16.4259C32.5732 15.4309 33.0257 14.4329 33.4932 13.429C33.9577 12.425 34.4492 11.4301 34.9617 10.4441C35.4741 9.45813 36.0255 8.49314 36.6099 7.55212C37.1943 6.6111 37.8177 5.70904 38.483 4.83995C38.6868 4.58821 38.9025 4.32748 39.1243 4.05776C39.3461 3.78805 39.5768 3.53631 39.8226 3.29956C40.0683 3.0628 40.3291 2.84703 40.6048 2.64924C40.8805 2.45144 41.1682 2.28961 41.4709 2.16374C41.5488 2.13377 41.6237 2.11279 41.6956 2.1038C41.7676 2.09481 41.8335 2.07683 41.8964 2.04387C41.9294 2.18472 41.9474 2.32557 41.9564 2.45744C41.9653 2.59229 41.9773 2.73015 41.9923 2.871C42.0223 3.80303 41.9713 4.73506 41.8395 5.66709C41.7046 6.59911 41.5578 7.51616 41.4019 8.41522C40.9764 10.7228 40.4789 13.0064 39.9095 15.2631C39.3401 17.5227 38.7407 19.7824 38.1084 22.042C37.9346 22.6893 37.7398 23.3336 37.527 23.975C37.4311 24.2597 37.3472 24.5504 37.2692 24.8411H40.2631C40.6287 24.2477 41.0513 23.5554 41.5428 22.7552C42.0642 21.9011 42.6366 21.0111 43.26 20.076C43.8833 19.144 44.5427 18.203 45.2379 17.256C45.9332 16.309 46.6315 15.4309 47.3357 14.6247C48.04 13.8186 48.7293 13.1233 49.4096 12.5389C50.0899 11.9545 50.7372 11.5589 51.3516 11.3551C51.3516 11.5769 51.3396 11.8227 51.3156 12.0894C51.2916 12.3591 51.2646 12.6108 51.2317 12.8476C51.1058 13.7167 50.935 14.5738 50.7222 15.4189C50.5094 16.264 50.2907 17.1121 50.0719 17.9662C49.5504 19.9562 49.017 21.9551 48.4716 23.963C48.3936 24.2537 48.3217 24.5474 48.2498 24.8411H50.3626C50.5304 24.1668 50.7012 23.4925 50.89 22.8272C51.4504 20.8223 51.9839 18.7994 52.4904 16.7615C52.5683 16.4468 52.6642 16.0692 52.7751 15.6347C52.886 15.2001 52.9878 14.7416 53.0837 14.2591C53.1796 13.7766 53.2456 13.2911 53.2845 12.8026C53.3235 12.3141 53.3085 11.8496 53.2366 11.4151C53.1647 10.9805 53.0208 10.5939 52.799 10.2553C52.5773 9.91665 52.2536 9.65892 51.8281 9.4851C51.5913 9.37422 51.3216 9.32027 51.0219 9.32027C50.7222 9.32027 50.4525 9.37122 50.1678 9.47311C49.8831 9.57501 49.6074 9.70088 49.3377 9.85372C49.0679 10.0036 48.8132 10.1714 48.5675 10.3512C48.3217 10.534 48.0969 10.7108 47.8932 10.8846C47.2608 11.4211 46.6255 12.0534 45.9842 12.7817C45.3458 13.5099 44.7255 14.2681 44.1231 15.0563C43.5237 15.8475 42.9453 16.6476 42.3939 17.4628C41.8395 18.2779 41.327 19.0391 40.8535 19.7494C40.9164 19.5606 40.9734 19.3688 41.0183 19.18C41.0663 18.9912 41.1142 18.7994 41.1592 18.6106C41.7286 16.3989 42.277 14.1662 42.8075 11.9156C43.3379 9.66491 43.6796 7.39328 43.8384 5.10068C43.8534 4.76802 43.8654 4.42039 43.8744 4.05776C43.8833 3.69514 43.8714 3.33252 43.8384 2.9669C43.8054 2.60428 43.7395 2.25365 43.6376 1.912C43.5357 1.57336 43.3739 1.26168 43.1521 0.97698C42.9154 0.662309 42.6456 0.43155 42.346 0.290697C42.0463 0.149844 41.7286 0.0779187 41.3989 0.0779187C41.1622 0.0779187 40.9254 0.110884 40.6887 0.173819C40.4519 0.236753 40.2212 0.323662 40.0024 0.434546C39.2742 0.797168 38.6029 1.28865 37.9885 1.90301C37.3711 2.52037 36.8107 3.19167 36.3043 3.91691C35.7978 4.64515 35.3333 5.39437 34.9047 6.16756C34.4792 6.94076 34.0746 7.67799 33.697 8.37026C32.2105 11.0884 30.8619 13.8515 29.6452 16.6656C28.4285 19.4767 27.2507 22.3297 26.1149 25.2217C26.6034 23.3726 27.0829 21.5415 27.5474 19.7224C28.0119 17.9063 28.4584 16.0662 28.887 14.1992C29.1088 13.2522 29.3335 12.2902 29.5613 11.3192C29.7891 10.3482 29.9958 9.36522 30.1786 8.36727C30.3615 7.37231 30.4993 6.37734 30.5922 5.38238C30.6881 4.38742 30.7121 3.40744 30.6641 2.44245C30.6492 2.19071 30.6162 1.92099 30.5682 1.63629C30.5203 1.35159 30.4424 1.08786 30.3315 0.842121C30.2206 0.596378 30.0678 0.395587 29.87 0.236753C29.6722 0.0779187 29.4085 0 29.0758 0C28.854 0 28.6922 0.0719249 28.5903 0.212778C28.4884 0.353631 28.5004 0.593381 28.6263 0.923037C28.6742 1.04891 28.7102 1.22272 28.7342 1.44449C28.7581 1.66626 28.7761 1.89402 28.7941 2.13078C28.8091 2.52636 28.8031 2.92195 28.7701 3.31454C28.7372 3.71013 28.6982 4.10571 28.6502 4.4983C28.5244 5.54122 28.3685 6.57214 28.1887 7.59108C28.0059 8.61001 27.8051 9.63195 27.5834 10.6599C27.0469 13.2192 26.4565 15.7516 25.8182 18.2539C25.2848 20.3458 24.7333 22.4466 24.1699 24.5534H25.2338L25.6534 32.2793C25.9141 31.587 26.1778 30.8948 26.4445 30.2115C26.8132 29.2585 27.1878 28.3085 27.5624 27.3614H27.2417V24.8321L27.2387 24.8381Z" fill="#253067"/>
<path d="M47.5402 28.2246C47.4383 28.83 47.3484 29.4383 47.2704 30.0497C47.1745 30.7779 47.1356 31.5691 47.1506 32.4322C47.1656 33.2923 47.2914 34.1045 47.5282 34.8627C47.7649 35.6209 48.1575 36.2562 48.7 36.7717C49.2454 37.2842 50.0066 37.5509 50.9866 37.5659C51.2863 37.5659 51.4601 37.467 51.508 37.2692C51.556 37.0714 51.529 36.8496 51.4241 36.6069C51.3222 36.3611 51.1604 36.1364 50.9386 35.9326C50.7169 35.7258 50.4891 35.6239 50.2523 35.6239C49.9676 35.6239 49.7788 35.5999 49.6829 35.552C49.587 35.504 49.4941 35.4261 49.3982 35.3152C49.4312 35.3482 49.4192 35.3122 49.3623 35.2073C49.3053 35.1054 49.2634 35.0065 49.2304 34.9106C49.1825 34.7698 49.1465 34.6229 49.1225 34.4731C49.0985 34.3232 49.0776 34.1764 49.0626 34.0355C48.9517 33.1814 48.9517 32.3303 49.0626 31.4762C49.0776 31.3533 49.0985 31.2335 49.1135 31.1136C48.7449 29.2825 48.2774 28.5333 47.5282 28.2306L47.5402 28.2246Z" fill="#253067"/>
<path d="M20.6817 37.3021C20.6337 37.5059 20.5798 37.7217 20.5169 37.9404C20.4539 38.1622 20.409 38.384 20.385 38.6028C20.361 38.8245 20.376 39.0373 20.433 39.2411C20.4869 39.4449 20.5948 39.6367 20.7536 39.8105C21.0533 40.1252 21.338 40.284 21.6077 40.284C21.8595 40.284 22.0812 40.1821 22.27 39.9753C22.4588 39.7685 22.6267 39.5258 22.7675 39.2411C22.9833 38.8215 23.1901 38.399 23.3909 37.9704C23.0073 35.7797 22.5068 34.0295 21.9314 32.636C21.4968 34.1824 21.0773 35.7348 20.6817 37.2991V37.3021Z" fill="#253067"/>
<path d="M62.8778 25.4763C62.728 24.9698 62.5212 24.4963 62.2604 24.0557C61.9997 23.6122 61.6761 23.2466 61.2895 22.9529C60.9029 22.6592 60.4473 22.5153 59.9259 22.5153C59.5003 22.5153 59.0778 22.6232 58.6582 22.836C58.2386 23.0488 57.8401 23.3185 57.4625 23.6422C57.0819 23.9658 56.7282 24.3225 56.3956 24.7091C56.0629 25.0957 55.7782 25.4553 55.5415 25.7879C55.7153 25.0297 55.8771 24.2865 56.027 23.5613C56.1768 22.836 56.3386 22.0928 56.5125 21.3346C56.5454 21.1757 56.5244 21.0139 56.4525 20.8491C56.3806 20.6843 56.2787 20.5284 56.1438 20.3876C56.009 20.2467 55.8561 20.1298 55.6823 20.0429C55.5085 19.956 55.3497 19.9141 55.2088 19.9141C55.0829 19.9141 54.9631 19.959 54.8522 20.0429C54.7413 20.1298 54.6694 20.2617 54.6394 20.4325C54.1809 22.5183 53.7284 24.5922 53.2758 26.654C52.8802 28.4641 52.4817 30.2892 52.0801 32.1293L52.2539 33.7596C52.2749 33.7836 52.2929 33.8106 52.3168 33.8345C52.4577 33.9844 52.6135 34.1072 52.7783 34.2031C52.9432 34.299 53.105 34.344 53.2638 34.344C53.3597 34.344 53.4496 34.317 53.5366 34.2601C53.6235 34.2031 53.6894 34.1132 53.7373 33.9874C53.8962 33.5768 54.1 33.0883 54.3547 32.5189C54.6064 31.9495 54.8911 31.3501 55.2088 30.7178C55.5235 30.0854 55.8681 29.4471 56.2397 28.7968C56.6113 28.1495 57.0009 27.5501 57.4115 26.9957C57.8221 26.4442 58.2446 25.9528 58.6792 25.5272C59.1137 25.1016 59.5453 24.802 59.9708 24.6281C60.0967 24.5802 60.2046 24.5412 60.2915 24.5083C60.3784 24.4753 60.4533 24.4603 60.5163 24.4603C60.6421 24.4603 60.75 24.5472 60.8369 24.721C60.9238 24.8949 60.9988 25.0927 61.0617 25.3144C61.1246 25.5362 61.1756 25.758 61.2145 25.9767C61.2535 26.1985 61.2805 26.3543 61.2985 26.4502C61.3134 26.5192 61.3374 26.5881 61.3674 26.654C61.8619 26.2674 62.3773 25.9168 62.9108 25.6141C62.8988 25.5662 62.8898 25.5242 62.8748 25.4763H62.8778Z" fill="#253067"/>
<path d="M23.3896 37.9733C23.4076 38.0812 23.4286 38.1831 23.4466 38.294L23.5545 38.9443H26.0059L25.6463 32.2822C25.3346 33.1094 25.0259 33.9395 24.7203 34.7756C24.3217 35.8665 23.8781 36.9304 23.3896 37.9733Z" fill="#F3723B"/>
<path d="M23.8341 25.8091C23.945 25.3925 24.0559 24.976 24.1668 24.5594H22.8152L22.5634 27.2057C22.5634 27.2057 22.5634 27.2057 22.5634 27.2087C22.5455 27.1937 22.5245 27.1757 22.5035 27.1577C20.4926 25.0989 17.9602 24.0979 14.7686 24.0979C6.07166 24.0949 0 32.3962 0 44.2818C0 56.1674 5.73002 64.19 14.2561 64.19C21.6554 64.19 26.3065 58.3491 27.3524 47.7402L27.4364 46.8861H24.6882L24.6013 47.5664C23.0849 59.4939 17.3159 60.7826 14.9034 60.7826C8.89771 60.7826 4.70509 53.8838 4.70509 44.0061C4.70509 35.6778 7.90275 27.2746 15.0443 27.2746C17.1931 27.2746 19.9921 27.9429 21.9311 32.642C22.033 32.2794 22.1289 31.9167 22.2338 31.5571C22.7792 29.6541 23.3127 27.7391 23.8341 25.8091Z" fill="#F3723B"/>
<path d="M24.1644 24.5593C24.0535 24.9759 23.9456 25.3895 23.8317 25.809C23.3103 27.736 22.7768 29.651 22.2314 31.557C22.1295 31.9166 22.0306 32.2793 21.9287 32.6419C22.5041 34.0354 23.0016 35.7856 23.3882 37.9763C23.8767 36.9364 24.3232 35.8725 24.7188 34.7787C25.0245 33.9425 25.3332 33.1094 25.6448 32.2853L25.2253 24.5593H24.1614H24.1644Z" fill="#F3723B"/>
<path d="M40.2567 24.8379C40.2327 24.8768 40.2087 24.9188 40.1848 24.9548C40.0739 25.1436 39.963 25.3534 39.8521 25.5841C39.7412 25.8119 39.6244 26.0456 39.4955 26.2824C39.3696 26.5191 39.2378 26.7439 39.1059 26.9567C38.971 27.1695 38.8182 27.3553 38.6444 27.5141C38.5335 27.61 38.3986 27.655 38.2428 27.655C38.1169 27.655 37.9911 27.631 37.8652 27.583C37.7393 27.5351 37.6284 27.4721 37.5325 27.3942C37.059 27.0166 36.8852 26.5251 37.0111 25.9258C37.08 25.5601 37.1669 25.1975 37.2628 24.8379H28.5629C28.2272 25.68 27.8916 26.5221 27.5589 27.3673H28.0175C32.0573 27.3673 32.0573 27.7269 32.0573 30.0644V58.226C32.0573 60.5636 32.0573 60.9232 28.0175 60.9232H27.2383V63.4526H51.1743L54.1802 52.7717L51.471 52.0435L51.2642 52.7837C49.2473 59.9582 48.3452 60.2759 45.5282 60.2759H37.8382C36.5705 60.2759 36.4387 60.2759 36.4387 58.4119V44.7851H42.7021C44.9468 44.7851 45.3514 44.7851 45.3514 49.3343V50.1135H47.8807V36.5137H45.3514V37.2929C45.3514 41.7942 44.9468 41.7942 42.7021 41.7942H36.4387V29.1864C36.4387 28.3562 36.7893 28.0176 37.6524 28.0176H45.5252C46.3733 28.0176 47.0266 28.0176 47.5421 28.2274C47.7309 27.0915 47.9676 25.9617 48.2493 24.8409H40.2597L40.2567 24.8379Z" fill="#F3723B"/>
<path d="M51.918 32.8935C51.975 32.6358 52.0289 32.381 52.0858 32.1233L51.4865 26.4622L51.3246 24.8379H50.3626C50.03 26.1895 49.7303 27.5561 49.4786 28.9376C49.3437 29.6569 49.2298 30.3821 49.1279 31.1103C49.3047 31.9944 49.4606 33.1302 49.6164 34.5927L49.6973 35.3479L52.4065 35.1321L52.2597 33.7596C52.1488 33.6307 52.0559 33.5018 51.9899 33.361C51.912 33.1962 51.8881 33.0403 51.918 32.8995V32.8935Z" fill="#F3723B"/>
<path d="M37.0113 25.9258C36.8855 26.5251 37.0593 27.0166 37.5328 27.3942C37.6287 27.4721 37.7396 27.5351 37.8654 27.583C37.9913 27.631 38.1172 27.655 38.243 27.655C38.4019 27.655 38.5367 27.607 38.6446 27.5141C38.8184 27.3553 38.9713 27.1695 39.1061 26.9567C39.241 26.7439 39.3699 26.5191 39.4957 26.2824C39.6216 26.0456 39.7415 25.8119 39.8524 25.5841C39.9632 25.3564 40.0741 25.1466 40.185 24.9548C40.209 24.9188 40.233 24.8739 40.2569 24.8379H37.2631C37.1672 25.1975 37.0803 25.5601 37.0113 25.9258Z" fill="#F3723B"/>
<path d="M50.3591 24.838H48.2463C47.9676 25.9588 47.7279 27.0886 47.5391 28.2244C48.2883 28.5301 48.7558 29.2763 49.1244 31.1074C49.2263 30.3792 49.3402 29.6539 49.475 28.9347C49.7268 27.5531 50.0265 26.1895 50.3591 24.835V24.838Z" fill="#253067"/>
<path d="M27.2383 24.8379V27.3673H27.5589C27.8916 26.5221 28.2272 25.68 28.5629 24.8379H27.2383Z" fill="#F3723B"/>
<path d="M51.9183 32.8937C51.8883 33.0346 51.9093 33.1904 51.9902 33.3553C52.0561 33.4931 52.149 33.625 52.2599 33.7538L52.0861 32.1235C52.0292 32.3813 51.9752 32.636 51.9183 32.8937Z" fill="#F3723B"/>
<path d="M68.6857 24.095C66.6239 24.095 64.6729 24.6164 62.9137 25.6144C63.0396 26.0669 63.1325 26.4895 63.1745 26.8761C63.2074 27.1458 63.1745 27.3346 63.0786 27.4455C62.9827 27.5564 62.8508 27.6103 62.677 27.6103C62.5511 27.6103 62.4133 27.5773 62.2634 27.5144C62.1136 27.4515 61.9697 27.3646 61.8379 27.2537C61.703 27.1428 61.5891 27.0169 61.4932 26.8731C61.4453 26.7981 61.4033 26.7262 61.3733 26.6513C60.2046 27.5653 59.1467 28.7102 58.2326 30.0797C55.8111 33.7059 54.4775 38.6987 54.4775 44.141C54.4775 49.5834 55.8501 54.5342 58.3465 58.2084C60.9658 62.0653 64.6549 64.1871 68.7337 64.1871C77.047 64.1871 82.8519 55.9427 82.8519 44.141C82.8519 32.3394 76.7623 24.095 68.6887 24.095H68.6857ZM69.5638 61.0134C62.9467 61.0134 58.9938 51.0938 58.9938 41.5038C58.9938 31.9138 63.4262 27.2747 67.8046 27.2747C73.0012 27.2747 78.3746 34.5541 78.3746 46.7393C78.3746 53.8329 75.3477 61.0164 69.5638 61.0164V61.0134Z" fill="#F3723B"/>
<path d="M61.8347 27.2538C61.9696 27.3647 62.1104 27.4516 62.2603 27.5145C62.4101 27.5775 62.548 27.6104 62.6738 27.6104C62.8476 27.6104 62.9825 27.5565 63.0754 27.4456C63.1713 27.3347 63.2013 27.1459 63.1713 26.8762C63.1293 26.4896 63.0364 26.067 62.9106 25.6145C62.3771 25.9172 61.8617 26.2648 61.3672 26.6544C61.4002 26.7293 61.4391 26.8013 61.4871 26.8762C61.583 27.017 61.6968 27.1459 61.8317 27.2568L61.8347 27.2538Z" fill="#253067"/>
<path d="M93.1843 25.7551H92.0186V62.5208H93.1843V25.7551Z" fill="#253067"/>
<path d="M101.956 34.0863V26.0637H103.266V34.0863H101.956Z" fill="#253067"/>
<path d="M104.997 34.0866V27.934H106.004L106.109 28.8121H106.19C106.337 28.5873 106.514 28.3985 106.717 28.2517C106.921 28.1048 107.143 27.9909 107.389 27.913C107.634 27.8351 107.904 27.7961 108.201 27.7961C108.59 27.7961 108.932 27.8651 109.229 27.9999C109.525 28.1378 109.756 28.3566 109.924 28.6622C110.092 28.9679 110.176 29.3755 110.176 29.891V34.0896H108.959V30.0768C108.959 29.843 108.929 29.6482 108.872 29.4924C108.815 29.3365 108.731 29.2107 108.62 29.1178C108.512 29.0249 108.384 28.9589 108.234 28.92C108.084 28.881 107.922 28.86 107.742 28.86C107.461 28.86 107.206 28.929 106.975 29.0638C106.744 29.2017 106.559 29.3905 106.421 29.6302C106.28 29.873 106.211 30.1577 106.211 30.4843V34.0866H104.994H104.997Z" fill="#253067"/>
<path d="M113.302 34.0867L111.021 27.9341H112.295L113.359 30.871C113.407 31.0119 113.464 31.1917 113.533 31.4135C113.602 31.6352 113.674 31.863 113.743 32.0967C113.812 32.3305 113.875 32.5403 113.928 32.7291H113.988C114.036 32.5493 114.09 32.3455 114.159 32.1147C114.225 31.884 114.294 31.6562 114.363 31.4314C114.432 31.2067 114.495 31.0179 114.549 30.871L115.601 27.9341H116.841L114.549 34.0867H113.296H113.302Z" fill="#253067"/>
<path d="M120.258 34.2274C119.626 34.2274 119.098 34.1135 118.673 33.8828C118.247 33.652 117.926 33.2984 117.708 32.8249C117.489 32.3484 117.381 31.746 117.381 31.0118C117.381 30.2776 117.489 29.6662 117.708 29.1927C117.926 28.7222 118.25 28.3715 118.679 28.1408C119.107 27.91 119.64 27.7961 120.282 27.7961C120.866 27.7961 121.355 27.907 121.75 28.1288C122.143 28.3506 122.443 28.6892 122.646 29.1417C122.85 29.5943 122.949 30.1637 122.949 30.85V31.3175H118.634C118.649 31.755 118.714 32.1176 118.831 32.4113C118.948 32.705 119.125 32.9178 119.365 33.0557C119.602 33.1935 119.904 33.2594 120.27 33.2594C120.495 33.2594 120.698 33.2295 120.878 33.1725C121.058 33.1156 121.211 33.0287 121.334 32.9148C121.46 32.8009 121.556 32.6661 121.627 32.5042C121.696 32.3454 121.732 32.1626 121.732 31.9618H122.925C122.925 32.3274 122.862 32.6511 122.739 32.9328C122.616 33.2145 122.434 33.4482 122.197 33.64C121.96 33.8318 121.675 33.9787 121.349 34.0776C121.022 34.1765 120.659 34.2304 120.261 34.2304L120.258 34.2274ZM118.658 30.4244H121.675C121.675 30.1217 121.642 29.864 121.576 29.6572C121.511 29.4504 121.415 29.2826 121.289 29.1477C121.163 29.0159 121.016 28.92 120.845 28.86C120.674 28.8031 120.48 28.7731 120.261 28.7731C119.934 28.7731 119.655 28.8331 119.425 28.9499C119.194 29.0668 119.017 29.2496 118.891 29.4924C118.765 29.7381 118.687 30.0468 118.658 30.4214V30.4244Z" fill="#253067"/>
<path d="M126.458 34.2275C126.03 34.2275 125.652 34.1795 125.322 34.0866C124.996 33.9937 124.723 33.8648 124.504 33.7C124.285 33.5352 124.121 33.3404 124.007 33.1096C123.893 32.8789 123.836 32.6241 123.836 32.3424C123.836 32.3035 123.836 32.2675 123.842 32.2375C123.845 32.2076 123.848 32.1806 123.848 32.1566H125.053V32.2855C125.053 32.5282 125.119 32.72 125.25 32.8639C125.382 33.0077 125.559 33.1096 125.784 33.1666C126.009 33.2235 126.248 33.2535 126.515 33.2535C126.749 33.2535 126.965 33.2235 127.165 33.1666C127.363 33.1066 127.528 33.0197 127.657 32.9029C127.786 32.786 127.849 32.6391 127.849 32.4593C127.849 32.2256 127.768 32.0457 127.603 31.9229C127.438 31.797 127.225 31.6981 126.959 31.6232C126.695 31.5483 126.416 31.4704 126.129 31.3834C125.871 31.3145 125.616 31.2366 125.361 31.1557C125.107 31.0748 124.879 30.9669 124.678 30.835C124.474 30.7032 124.312 30.5353 124.187 30.3315C124.061 30.1278 124.001 29.876 124.001 29.5703C124.001 29.2826 124.064 29.0279 124.187 28.8091C124.312 28.5904 124.486 28.4075 124.708 28.2607C124.93 28.1139 125.197 28 125.502 27.9221C125.811 27.8441 126.147 27.8052 126.515 27.8052C126.884 27.8052 127.237 27.8471 127.531 27.928C127.828 28.009 128.08 28.1258 128.286 28.2727C128.493 28.4195 128.652 28.5993 128.76 28.8061C128.868 29.0129 128.925 29.2317 128.925 29.4654C128.925 29.5134 128.925 29.5613 128.919 29.6123C128.916 29.6632 128.913 29.6962 128.913 29.7112H127.72V29.6063C127.72 29.4505 127.678 29.3096 127.591 29.1867C127.504 29.0609 127.369 28.962 127.186 28.884C127.004 28.8061 126.761 28.7672 126.455 28.7672C126.251 28.7672 126.072 28.7852 125.916 28.8211C125.76 28.8571 125.631 28.905 125.529 28.968C125.427 29.0309 125.352 29.1058 125.301 29.1897C125.25 29.2766 125.226 29.3725 125.226 29.4834C125.226 29.6632 125.289 29.8011 125.418 29.9C125.547 29.9989 125.718 30.0798 125.928 30.1457C126.138 30.2117 126.365 30.2836 126.605 30.3615C126.887 30.4394 127.171 30.5203 127.459 30.6013C127.747 30.6822 128.014 30.7871 128.259 30.9099C128.505 31.0358 128.703 31.2066 128.856 31.4254C129.009 31.6442 129.083 31.9349 129.083 32.3035C129.083 32.6391 129.018 32.9298 128.886 33.1816C128.754 33.4303 128.568 33.6311 128.331 33.7839C128.094 33.9368 127.816 34.0477 127.495 34.1226C127.174 34.1975 126.83 34.2335 126.455 34.2335L126.458 34.2275Z" fill="#253067"/>
<path d="M131.85 34.2275C131.499 34.2275 131.223 34.1586 131.026 34.0237C130.828 33.8859 130.687 33.712 130.603 33.4963C130.522 33.2835 130.48 33.0527 130.48 32.813V28.941H129.707V27.9341H130.501L130.723 26.2139H131.694V27.9341H132.806V28.941H131.694V32.6721C131.694 32.8519 131.733 32.9868 131.811 33.0827C131.889 33.1756 132.018 33.2235 132.197 33.2235H132.806V34.0417C132.728 34.0717 132.632 34.1016 132.518 34.1286C132.404 34.1556 132.29 34.1796 132.173 34.1975C132.057 34.2155 131.949 34.2275 131.847 34.2275H131.85Z" fill="#253067"/>
<path d="M101.956 48.1209V40.0983H104.003L105.558 44.9622C105.606 45.1031 105.651 45.2619 105.699 45.4417C105.747 45.6215 105.792 45.7923 105.834 45.9572C105.876 46.122 105.909 46.2658 105.933 46.3887H106.026C106.041 46.2718 106.068 46.131 106.107 45.9662C106.146 45.8013 106.188 45.6305 106.23 45.4507C106.272 45.2709 106.317 45.1031 106.364 44.9472L107.932 40.0923H109.943V48.1149H108.645V43.7185C108.645 43.4218 108.648 43.1131 108.657 42.7955C108.666 42.4748 108.672 42.1901 108.681 41.9414C108.69 41.6926 108.693 41.5308 108.693 41.4619H108.6C108.585 41.5488 108.546 41.6926 108.489 41.8994C108.429 42.1062 108.369 42.325 108.309 42.5617C108.246 42.7955 108.19 42.9993 108.133 43.1701L106.508 48.1179H105.352L103.727 43.1821C103.679 43.0352 103.628 42.8584 103.574 42.6546C103.52 42.4508 103.466 42.244 103.41 42.0343C103.356 41.8245 103.308 41.6327 103.269 41.4619H103.176C103.185 41.6477 103.188 41.8784 103.194 42.1511C103.197 42.4238 103.203 42.6996 103.212 42.9753C103.221 43.251 103.224 43.4997 103.224 43.7185V48.1149H101.962L101.956 48.1209Z" fill="#253067"/>
<path d="M114.237 48.2619C113.605 48.2619 113.078 48.148 112.652 47.9172C112.226 47.6865 111.906 47.3328 111.687 46.8593C111.468 46.3858 111.36 45.7804 111.36 45.0462C111.36 44.312 111.468 43.7006 111.687 43.2271C111.906 42.7566 112.229 42.406 112.658 42.1752C113.087 41.9444 113.62 41.8306 114.261 41.8306C114.846 41.8306 115.334 41.9415 115.73 42.1632C116.122 42.385 116.422 42.7236 116.626 43.1762C116.83 43.6287 116.929 44.1981 116.929 44.8844V45.3519H112.613C112.628 45.7894 112.694 46.1521 112.811 46.4457C112.928 46.7394 113.105 46.9522 113.344 47.0901C113.581 47.2279 113.884 47.2939 114.249 47.2939C114.474 47.2939 114.678 47.2639 114.858 47.207C115.038 47.147 115.19 47.0631 115.313 46.9492C115.436 46.8353 115.535 46.7005 115.607 46.5387C115.676 46.3798 115.712 46.197 115.712 45.9962H116.905C116.905 46.3618 116.842 46.6855 116.719 46.9672C116.593 47.2489 116.413 47.4827 116.173 47.6745C115.937 47.8663 115.652 48.0131 115.325 48.112C114.999 48.2109 114.636 48.2649 114.237 48.2649V48.2619ZM112.634 44.4588H115.652C115.652 44.1561 115.619 43.8984 115.553 43.6916C115.487 43.4848 115.391 43.317 115.265 43.1822C115.139 43.0503 114.993 42.9544 114.822 42.8945C114.651 42.8345 114.456 42.8075 114.237 42.8075C113.911 42.8075 113.632 42.8675 113.401 42.9844C113.17 43.1012 112.994 43.2841 112.868 43.5268C112.742 43.7695 112.664 44.0812 112.634 44.4558V44.4588Z" fill="#253067"/>
<path d="M118.166 48.121V41.9684H119.173L119.278 42.8465H119.359C119.506 42.6217 119.682 42.4329 119.886 42.2861C120.09 42.1392 120.312 42.0254 120.558 41.9474C120.803 41.8695 121.073 41.8306 121.37 41.8306C121.759 41.8306 122.104 41.8995 122.398 42.0344C122.694 42.1722 122.925 42.391 123.093 42.6967C123.261 43.0023 123.345 43.4099 123.345 43.9254V48.124H122.128V44.1112C122.128 43.8774 122.098 43.6826 122.041 43.5268C121.981 43.371 121.9 43.2451 121.789 43.1522C121.678 43.0593 121.553 42.9934 121.403 42.9544C121.256 42.9154 121.091 42.8945 120.911 42.8945C120.63 42.8945 120.375 42.9634 120.144 43.0982C119.913 43.2331 119.73 43.4249 119.59 43.6647C119.449 43.9044 119.38 44.1921 119.38 44.5188V48.121H118.163H118.166Z" fill="#253067"/>
<path d="M126.399 48.2617C126.048 48.2617 125.772 48.1928 125.574 48.0579C125.377 47.92 125.236 47.7462 125.152 47.5304C125.071 47.3177 125.029 47.0869 125.029 46.8472V42.9752H124.256V41.9682H125.05L125.272 40.248H126.243V41.9682H127.355V42.9752H126.243V46.7063C126.243 46.8861 126.282 47.021 126.36 47.1169C126.438 47.2098 126.566 47.2577 126.746 47.2577H127.355V48.0759C127.277 48.1058 127.181 48.1358 127.067 48.1628C126.953 48.1898 126.839 48.2137 126.722 48.2317C126.605 48.2497 126.498 48.2617 126.396 48.2617H126.399Z" fill="#253067"/>
<path d="M131.055 48.2619C130.417 48.2619 129.875 48.148 129.434 47.9172C128.994 47.6865 128.661 47.3328 128.439 46.8593C128.217 46.3858 128.106 45.7804 128.106 45.0462C128.106 44.312 128.217 43.7006 128.439 43.2271C128.661 42.7566 128.994 42.406 129.434 42.1752C129.875 41.9444 130.414 41.8306 131.055 41.8306C131.697 41.8306 132.257 41.9444 132.692 42.1752C133.126 42.406 133.459 42.7566 133.681 43.2271C133.902 43.6976 134.013 44.306 134.013 45.0462C134.013 45.7864 133.902 46.3828 133.681 46.8593C133.459 47.3358 133.129 47.6865 132.692 47.9172C132.254 48.148 131.709 48.2619 131.055 48.2619ZM131.055 47.2549C131.445 47.2549 131.766 47.18 132.014 47.0271C132.263 46.8743 132.449 46.6435 132.569 46.3319C132.689 46.0202 132.749 45.6276 132.749 45.1511V44.9413C132.749 44.4648 132.689 44.0722 132.569 43.7606C132.449 43.4489 132.263 43.2181 132.014 43.0653C131.766 42.9124 131.445 42.8375 131.055 42.8375C130.666 42.8375 130.357 42.9124 130.108 43.0653C129.86 43.2181 129.674 43.4489 129.554 43.7606C129.434 44.0722 129.374 44.4678 129.374 44.9413V45.1511C129.374 45.6276 129.434 46.0202 129.554 46.3319C129.674 46.6435 129.86 46.8743 130.108 47.0271C130.357 47.18 130.675 47.2549 131.055 47.2549Z" fill="#253067"/>
<path d="M135.254 48.1208V41.9682H136.261L136.366 42.9632H136.435C136.504 42.7684 136.597 42.5856 136.711 42.4148C136.824 42.244 136.971 42.1031 137.154 41.9922C137.337 41.8843 137.562 41.8274 137.825 41.8274C137.951 41.8274 138.062 41.8394 138.158 41.8634C138.254 41.8873 138.332 41.9053 138.386 41.9203V43.0681H137.975C137.726 43.0681 137.505 43.1071 137.313 43.185C137.121 43.2629 136.962 43.3768 136.833 43.5296C136.705 43.6825 136.612 43.8683 136.552 44.084C136.495 44.3028 136.465 44.5485 136.465 44.8213V48.1178H135.248L135.254 48.1208Z" fill="#253067"/>
<path d="M101.956 62.155V54.1324H103.218L106.877 59.1611C106.925 59.2091 106.976 59.275 107.036 59.3589C107.096 59.4458 107.15 59.5298 107.207 59.6167C107.261 59.7036 107.299 59.7725 107.323 59.8265H107.383V54.1294H108.645V62.152H107.428L103.721 57.0633C103.658 56.9704 103.58 56.8506 103.487 56.7067C103.395 56.5629 103.323 56.452 103.278 56.3741H103.218V62.152H101.956V62.155Z" fill="#253067"/>
<path d="M112.927 62.2963C112.294 62.2963 111.767 62.1824 111.341 61.9516C110.916 61.7209 110.595 61.3672 110.376 60.8937C110.158 60.4172 110.05 59.8149 110.05 59.0806C110.05 58.3464 110.158 57.735 110.376 57.2615C110.595 56.791 110.919 56.4404 111.347 56.2096C111.776 55.9789 112.309 55.865 112.951 55.865C113.535 55.865 114.024 55.9759 114.419 56.1976C114.812 56.4194 115.112 56.7581 115.315 57.2106C115.519 57.6631 115.618 58.2325 115.618 58.9188V59.3863H111.302C111.317 59.8239 111.383 60.1865 111.5 60.4802C111.617 60.7739 111.794 60.9866 112.034 61.1245C112.27 61.2624 112.573 61.3283 112.939 61.3283C113.164 61.3283 113.367 61.2983 113.547 61.2414C113.727 61.1844 113.88 61.0975 114.003 60.9836C114.129 60.8698 114.224 60.7349 114.296 60.5731C114.365 60.4142 114.401 60.2314 114.401 60.0306H115.594C115.594 60.3963 115.531 60.7199 115.408 61.0016C115.285 61.2833 115.103 61.5171 114.866 61.7089C114.629 61.9007 114.344 62.0475 114.018 62.1464C113.691 62.2453 113.328 62.2993 112.93 62.2993L112.927 62.2963ZM111.323 58.4932H114.341C114.341 58.1906 114.308 57.9328 114.242 57.726C114.176 57.5193 114.081 57.3514 113.955 57.2166C113.829 57.0847 113.682 56.9888 113.511 56.9289C113.34 56.8689 113.146 56.842 112.927 56.842C112.6 56.842 112.321 56.9019 112.091 57.0188C111.86 57.1357 111.683 57.3185 111.557 57.5612C111.431 57.807 111.353 58.1156 111.323 58.4902V58.4932Z" fill="#253067"/>
<path d="M118.388 62.2959C118.037 62.2959 117.761 62.2269 117.564 62.0921C117.366 61.9542 117.225 61.7804 117.144 61.5646C117.063 61.3518 117.021 61.1211 117.021 60.8813V57.0094H116.248V56.0024H117.042L117.264 54.2822H118.235V56.0024H119.347V57.0094H118.235V60.7405C118.235 60.9203 118.274 61.0552 118.352 61.1511C118.43 61.244 118.559 61.2919 118.738 61.2919H119.347V62.1101C119.269 62.14 119.173 62.17 119.059 62.197C118.945 62.2239 118.831 62.2479 118.714 62.2659C118.598 62.2839 118.49 62.2959 118.388 62.2959Z" fill="#253067"/>
<path d="M121.57 62.1553L119.721 56.0027H120.982L121.881 59.3712C121.929 59.536 121.968 59.7068 122.004 59.8866C122.04 60.0664 122.073 60.2253 122.103 60.3661C122.133 60.507 122.157 60.6029 122.172 60.6598H122.241C122.271 60.519 122.307 60.3601 122.346 60.1803C122.385 60.0005 122.421 59.8357 122.451 59.6828C122.481 59.53 122.505 59.4161 122.52 59.3382L123.338 56.0057H124.648L125.49 59.3502C125.52 59.4761 125.553 59.6169 125.589 59.7758C125.625 59.9346 125.658 60.0934 125.693 60.2493C125.729 60.4051 125.753 60.5429 125.768 60.6598H125.837C125.861 60.5519 125.891 60.4201 125.924 60.2672C125.96 60.1144 125.996 59.9616 126.035 59.8057C126.074 59.6499 126.11 59.506 126.14 59.3742L127.03 56.0057H128.187L126.35 62.1583H125.088L124.339 59.0955C124.309 58.9486 124.27 58.7748 124.222 58.58C124.174 58.3852 124.132 58.1904 124.093 57.9956C124.054 57.8008 124.024 57.63 124 57.4801H123.931C123.916 57.5671 123.895 57.6899 123.868 57.8548C123.841 58.0196 123.805 58.2054 123.757 58.4152C123.71 58.6249 123.656 58.8527 123.593 59.0925L122.819 62.1553H121.558H121.57Z" fill="#253067"/>
<path d="M131.673 62.2963C131.034 62.2963 130.492 62.1824 130.051 61.9516C129.611 61.7209 129.278 61.3672 129.056 60.8937C128.835 60.4202 128.724 59.8149 128.724 59.0806C128.724 58.3464 128.835 57.735 129.056 57.2615C129.278 56.791 129.611 56.4404 130.051 56.2096C130.492 55.9789 131.031 55.865 131.673 55.865C132.314 55.865 132.874 55.9789 133.309 56.2096C133.743 56.4404 134.076 56.791 134.298 57.2615C134.52 57.732 134.63 58.3404 134.63 59.0806C134.63 59.8209 134.52 60.4172 134.298 60.8937C134.076 61.3702 133.746 61.7209 133.309 61.9516C132.871 62.1824 132.326 62.2963 131.673 62.2963ZM131.673 61.2893C132.062 61.2893 132.383 61.2144 132.632 61.0616C132.88 60.9087 133.066 60.678 133.186 60.3663C133.306 60.0546 133.366 59.662 133.366 59.1855V58.9757C133.366 58.4992 133.306 58.1067 133.186 57.795C133.066 57.4833 132.88 57.2525 132.632 57.0997C132.383 56.9469 132.062 56.8719 131.673 56.8719C131.283 56.8719 130.974 56.9469 130.726 57.0997C130.477 57.2525 130.291 57.4833 130.171 57.795C130.051 58.1067 129.991 58.5022 129.991 58.9757V59.1855C129.991 59.662 130.051 60.0546 130.171 60.3663C130.291 60.678 130.477 60.9087 130.726 61.0616C130.974 61.2144 131.292 61.2893 131.673 61.2893Z" fill="#253067"/>
<path d="M135.871 62.1555V56.0029H136.878L136.983 56.9979H137.052C137.121 56.8031 137.214 56.6203 137.328 56.4494C137.442 56.2786 137.588 56.1378 137.771 56.0269C137.954 55.919 138.179 55.8621 138.443 55.8621C138.568 55.8621 138.679 55.8741 138.775 55.898C138.871 55.922 138.949 55.94 139.003 55.955V57.1028H138.592C138.344 57.1028 138.122 57.1417 137.93 57.2196C137.738 57.2976 137.579 57.4114 137.451 57.5643C137.322 57.7171 137.229 57.9029 137.169 58.1187C137.109 58.3375 137.082 58.5832 137.082 58.8559V62.1525H135.865L135.871 62.1555Z" fill="#253067"/>
<path d="M139.92 62.1551V53.7009H141.137V58.8106L143.558 56.0025H144.997L142.914 58.388L145.113 62.1551H143.711L142.132 59.2781L141.137 60.2611V62.1551H139.92Z" fill="#253067"/>
</svg>
