<svg width="200" height="63" viewBox="0 0 200 63" fill="none" xmlns="http://www.w3.org/2000/svg">
<path d="M86.5995 37.0565C85.0845 37.0565 83.7232 36.793 82.5156 36.2661C81.33 35.7172 80.3969 34.9707 79.7163 34.0266C79.0356 33.0605 78.6843 31.9517 78.6624 30.7002H81.857C81.9667 31.7761 82.4059 32.6872 83.1743 33.4338C83.9647 34.1583 85.1065 34.5206 86.5995 34.5206C88.0266 34.5206 89.1463 34.1693 89.9587 33.4667C90.793 32.7421 91.2102 31.82 91.2102 30.7002C91.2102 29.822 90.9687 29.1084 90.4857 28.5595C90.0026 28.0106 89.3988 27.5935 88.6743 27.308C87.9497 27.0226 86.9727 26.7152 85.7432 26.3859C84.2282 25.9907 83.0097 25.5955 82.0875 25.2003C81.1873 24.805 80.4079 24.1903 79.7492 23.356C79.1125 22.4997 78.7941 21.358 78.7941 19.9308C78.7941 18.6793 79.1125 17.5706 79.7492 16.6045C80.3859 15.6384 81.2751 14.8919 82.4168 14.365C83.5805 13.838 84.9088 13.5746 86.4018 13.5746C88.5535 13.5746 90.31 14.1125 91.6713 15.1883C93.0545 16.2642 93.8339 17.6913 94.0096 19.4697H90.7162C90.6064 18.5915 90.1453 17.823 89.333 17.1644C88.5206 16.4837 87.4448 16.1434 86.1054 16.1434C84.854 16.1434 83.833 16.4728 83.0426 17.1314C82.2522 17.7682 81.857 18.6684 81.857 19.832C81.857 20.6663 82.0875 21.347 82.5486 21.8739C83.0316 22.4009 83.6134 22.8071 84.2941 23.0925C84.9967 23.356 85.9737 23.6633 87.2252 24.0146C88.7402 24.4318 89.9587 24.849 90.8809 25.2661C91.803 25.6613 92.5934 26.2871 93.2521 27.1434C93.9108 27.9777 94.2401 29.1194 94.2401 30.5685C94.2401 31.6882 93.9437 32.7421 93.3509 33.7302C92.7581 34.7182 91.8799 35.5196 90.7162 36.1343C89.5525 36.7491 88.1803 37.0565 86.5995 37.0565Z" fill="#0D3486"/>
<path d="M105.929 37.0565C104.414 37.0565 103.053 36.793 101.845 36.2661C100.659 35.7172 99.7263 34.9707 99.0457 34.0266C98.365 33.0605 98.0137 31.9517 97.9918 30.7002H101.186C101.296 31.7761 101.735 32.6872 102.504 33.4338C103.294 34.1583 104.436 34.5206 105.929 34.5206C107.356 34.5206 108.476 34.1693 109.288 33.4667C110.122 32.7421 110.54 31.82 110.54 30.7002C110.54 29.822 110.298 29.1084 109.815 28.5595C109.332 28.0106 108.728 27.5935 108.004 27.308C107.279 27.0226 106.302 26.7152 105.073 26.3859C103.558 25.9907 102.339 25.5955 101.417 25.2003C100.517 24.805 99.7373 24.1903 99.0786 23.356C98.4419 22.4997 98.1235 21.358 98.1235 19.9308C98.1235 18.6793 98.4419 17.5706 99.0786 16.6045C99.7153 15.6384 100.605 14.8919 101.746 14.365C102.91 13.838 104.238 13.5746 105.731 13.5746C107.883 13.5746 109.639 14.1125 111.001 15.1883C112.384 16.2642 113.163 17.6913 113.339 19.4697H110.046C109.936 18.5915 109.475 17.823 108.662 17.1644C107.85 16.4837 106.774 16.1434 105.435 16.1434C104.183 16.1434 103.162 16.4728 102.372 17.1314C101.582 17.7682 101.186 18.6684 101.186 19.832C101.186 20.6663 101.417 21.347 101.878 21.8739C102.361 22.4009 102.943 22.8071 103.623 23.0925C104.326 23.356 105.303 23.6633 106.555 24.0146C108.07 24.4318 109.288 24.849 110.21 25.2661C111.132 25.6613 111.923 26.2871 112.582 27.1434C113.24 27.9777 113.57 29.1194 113.57 30.5685C113.57 31.6882 113.273 32.7421 112.68 33.7302C112.088 34.7182 111.209 35.5196 110.046 36.1343C108.882 36.7491 107.51 37.0565 105.929 37.0565Z" fill="#0D3486"/>
<path d="M130.429 36.8259L120.977 26.3529V36.8259H117.98V13.871H120.977V24.5086L130.462 13.871H134.249L123.842 25.3649L134.348 36.8259H130.429Z" fill="#0D3486"/>
<path d="M156.665 13.871L148.004 36.8259H144.545L135.884 13.871H139.078L146.291 33.6643L153.504 13.871H156.665Z" fill="#0D3486"/>
<path d="M158.832 25.332C158.832 23.0925 159.337 21.0835 160.347 19.3051C161.357 17.5047 162.729 16.0995 164.463 15.0895C166.22 14.0796 168.163 13.5746 170.293 13.5746C172.796 13.5746 174.98 14.1784 176.846 15.3859C178.713 16.5935 180.074 18.3061 180.93 20.5236H177.341C176.704 19.1404 175.782 18.0755 174.574 17.329C173.388 16.5825 171.961 16.2093 170.293 16.2093C168.69 16.2093 167.252 16.5825 165.978 17.329C164.705 18.0755 163.706 19.1404 162.981 20.5236C162.257 21.8849 161.894 23.4877 161.894 25.332C161.894 27.1543 162.257 28.7571 162.981 30.1404C163.706 31.5016 164.705 32.5555 165.978 33.302C167.252 34.0485 168.69 34.4218 170.293 34.4218C171.961 34.4218 173.388 34.0595 174.574 33.3349C175.782 32.5884 176.704 31.5236 177.341 30.1404H180.93C180.074 32.3359 178.713 34.0375 176.846 35.2451C174.98 36.4307 172.796 37.0236 170.293 37.0236C168.163 37.0236 166.22 36.5295 164.463 35.5415C162.729 34.5315 161.357 33.1373 160.347 31.3589C159.337 29.5805 158.832 27.5715 158.832 25.332Z" fill="#0D3486"/>
<path d="M199.52 13.871V16.3081H193.263V36.8259H190.266V16.3081H183.975V13.871H199.52Z" fill="#0D3486"/>
<path d="M96.6399 51.1189H92.9361L92.2538 53.0074H91.0842L94.1545 44.5641H95.4338L98.4919 53.0074H97.3222L96.6399 51.1189ZM96.3232 50.2173L94.788 45.9287L93.2529 50.2173H96.3232Z" fill="#0D3486"/>
<path d="M102.664 48.7553C102.664 47.9268 102.851 47.1836 103.224 46.5257C103.598 45.8596 104.106 45.3398 104.747 44.9662C105.397 44.5925 106.116 44.4057 106.904 44.4057C107.83 44.4057 108.638 44.6291 109.328 45.0758C110.019 45.5225 110.522 46.1561 110.839 46.9765H109.511C109.276 46.4647 108.934 46.0708 108.488 45.7946C108.049 45.5185 107.521 45.3804 106.904 45.3804C106.311 45.3804 105.779 45.5185 105.308 45.7946C104.837 46.0708 104.467 46.4647 104.199 46.9765C103.931 47.4801 103.797 48.073 103.797 48.7553C103.797 49.4294 103.931 50.0224 104.199 50.5341C104.467 51.0377 104.837 51.4276 105.308 51.7037C105.779 51.9799 106.311 52.118 106.904 52.118C107.521 52.118 108.049 51.9839 108.488 51.7159C108.934 51.4397 109.276 51.0458 109.511 50.5341H110.839C110.522 51.3463 110.019 51.9758 109.328 52.4226C108.638 52.8612 107.83 53.0805 106.904 53.0805C106.116 53.0805 105.397 52.8977 104.747 52.5322C104.106 52.1586 103.598 51.6428 103.224 50.9849C102.851 50.327 102.664 49.5838 102.664 48.7553Z" fill="#0D3486"/>
<path d="M115.804 46.2089C116.307 46.2089 116.762 46.3185 117.168 46.5378C117.574 46.749 117.891 47.0699 118.118 47.5004C118.354 47.9308 118.472 48.4547 118.472 49.0721V53.0074H117.375V49.2304C117.375 48.5644 117.209 48.0567 116.876 47.7075C116.543 47.3501 116.088 47.1714 115.511 47.1714C114.926 47.1714 114.459 47.3542 114.11 47.7197C113.769 48.0852 113.598 48.6172 113.598 49.3157V53.0074H112.49V43.9915H113.598V47.2811C113.818 46.9399 114.118 46.6759 114.5 46.4891C114.89 46.3023 115.324 46.2089 115.804 46.2089Z" fill="#0D3486"/>
<path d="M119.869 49.6447C119.869 48.9624 120.007 48.3654 120.283 47.8537C120.559 47.3339 120.937 46.9318 121.416 46.6475C121.903 46.3632 122.443 46.2211 123.036 46.2211C123.621 46.2211 124.129 46.347 124.559 46.5988C124.99 46.8506 125.311 47.1673 125.522 47.5491V46.3307H126.643V53.0074H125.522V51.7646C125.302 52.1545 124.974 52.4794 124.535 52.7393C124.104 52.9911 123.601 53.117 123.024 53.117C122.431 53.117 121.895 52.9708 121.416 52.6784C120.937 52.386 120.559 51.9758 120.283 51.4479C120.007 50.9199 119.869 50.3188 119.869 49.6447ZM125.522 49.6569C125.522 49.1533 125.42 48.7147 125.217 48.341C125.014 47.9674 124.738 47.6831 124.389 47.4882C124.048 47.2851 123.67 47.1836 123.256 47.1836C122.841 47.1836 122.464 47.2811 122.123 47.476C121.781 47.6709 121.509 47.9552 121.306 48.3288C121.103 48.7025 121.002 49.1411 121.002 49.6447C121.002 50.1564 121.103 50.6031 121.306 50.9849C121.509 51.3585 121.781 51.6469 122.123 51.8499C122.464 52.0449 122.841 52.1423 123.256 52.1423C123.67 52.1423 124.048 52.0449 124.389 51.8499C124.738 51.6469 125.014 51.3585 125.217 50.9849C125.42 50.6031 125.522 50.1605 125.522 49.6569Z" fill="#0D3486"/>
<path d="M129.625 47.4151C129.82 47.0333 130.096 46.7369 130.454 46.5257C130.819 46.3145 131.262 46.2089 131.782 46.2089V47.3542H131.489C130.246 47.3542 129.625 48.0283 129.625 49.3766V53.0074H128.516V46.3307H129.625V47.4151Z" fill="#0D3486"/>
<path d="M134.414 47.2445V51.1798C134.414 51.5047 134.483 51.7362 134.621 51.8743C134.759 52.0043 134.999 52.0692 135.34 52.0692H136.156V53.0074H135.157C134.54 53.0074 134.077 52.8652 133.768 52.5809C133.459 52.2967 133.305 51.8296 133.305 51.1798V47.2445H132.44V46.3307H133.305V44.6494H134.414V46.3307H136.156V47.2445H134.414Z" fill="#0D3486"/>
<path d="M137.085 49.6447C137.085 48.9624 137.223 48.3654 137.499 47.8537C137.776 47.3339 138.153 46.9318 138.632 46.6475C139.12 46.3632 139.66 46.2211 140.253 46.2211C140.838 46.2211 141.345 46.347 141.776 46.5988C142.206 46.8506 142.527 47.1673 142.738 47.5491V46.3307H143.859V53.0074H142.738V51.7646C142.519 52.1545 142.19 52.4794 141.751 52.7393C141.321 52.9911 140.817 53.117 140.241 53.117C139.648 53.117 139.112 52.9708 138.632 52.6784C138.153 52.386 137.776 51.9758 137.499 51.4479C137.223 50.9199 137.085 50.3188 137.085 49.6447ZM142.738 49.6569C142.738 49.1533 142.637 48.7147 142.434 48.341C142.231 47.9674 141.955 47.6831 141.605 47.4882C141.264 47.2851 140.886 47.1836 140.472 47.1836C140.058 47.1836 139.68 47.2811 139.339 47.476C138.998 47.6709 138.726 47.9552 138.523 48.3288C138.32 48.7025 138.218 49.1411 138.218 49.6447C138.218 50.1564 138.32 50.6031 138.523 50.9849C138.726 51.3585 138.998 51.6469 139.339 51.8499C139.68 52.0449 140.058 52.1423 140.472 52.1423C140.886 52.1423 141.264 52.0449 141.605 51.8499C141.955 51.6469 142.231 51.3585 142.434 50.9849C142.637 50.6031 142.738 50.1605 142.738 49.6569Z" fill="#0D3486"/>
<path d="M146.842 47.5735C147.069 47.1755 147.402 46.8506 147.841 46.5988C148.279 46.347 148.779 46.2211 149.339 46.2211C149.94 46.2211 150.48 46.3632 150.96 46.6475C151.439 46.9318 151.817 47.3339 152.093 47.8537C152.369 48.3654 152.507 48.9624 152.507 49.6447C152.507 50.3188 152.369 50.9199 152.093 51.4479C151.817 51.9758 151.435 52.386 150.947 52.6784C150.468 52.9708 149.932 53.117 149.339 53.117C148.763 53.117 148.255 52.9911 147.816 52.7393C147.386 52.4875 147.061 52.1667 146.842 51.7768V53.0074H145.733V43.9915H146.842V47.5735ZM151.374 49.6447C151.374 49.1411 151.272 48.7025 151.069 48.3288C150.866 47.9552 150.59 47.6709 150.241 47.476C149.9 47.2811 149.522 47.1836 149.108 47.1836C148.702 47.1836 148.324 47.2851 147.975 47.4882C147.634 47.6831 147.357 47.9715 147.146 48.3532C146.943 48.7268 146.842 49.1614 146.842 49.6569C146.842 50.1605 146.943 50.6031 147.146 50.9849C147.357 51.3585 147.634 51.6469 147.975 51.8499C148.324 52.0449 148.702 52.1423 149.108 52.1423C149.522 52.1423 149.9 52.0449 150.241 51.8499C150.59 51.6469 150.866 51.3585 151.069 50.9849C151.272 50.6031 151.374 50.1564 151.374 49.6447Z" fill="#0D3486"/>
<path d="M155.075 43.9915V53.0074H153.966V43.9915H155.075Z" fill="#0D3486"/>
<path d="M163.057 49.4132C163.057 49.6244 163.044 49.8477 163.02 50.0833H157.684C157.724 50.7412 157.948 51.257 158.354 51.6306C158.768 51.9961 159.267 52.1789 159.852 52.1789C160.331 52.1789 160.729 52.0692 161.046 51.8499C161.371 51.6225 161.599 51.322 161.729 50.9483H162.923C162.744 51.59 162.386 52.1139 161.85 52.52C161.314 52.918 160.648 53.117 159.852 53.117C159.219 53.117 158.65 52.9749 158.146 52.6906C157.651 52.4063 157.261 52.0043 156.977 51.4844C156.693 50.9565 156.55 50.3473 156.55 49.6569C156.55 48.9665 156.689 48.3613 156.965 47.8415C157.241 47.3217 157.627 46.9237 158.122 46.6475C158.626 46.3632 159.202 46.2211 159.852 46.2211C160.486 46.2211 161.046 46.3592 161.534 46.6353C162.021 46.9115 162.395 47.2932 162.654 47.7806C162.923 48.2598 163.057 48.804 163.057 49.4132ZM161.911 49.1817C161.911 48.7593 161.818 48.3979 161.631 48.0974C161.444 47.7887 161.188 47.5572 160.863 47.4029C160.547 47.2404 160.193 47.1592 159.803 47.1592C159.243 47.1592 158.764 47.3379 158.366 47.6953C157.976 48.0527 157.753 48.5482 157.696 49.1817H161.911Z" fill="#0D3486"/>
<path d="M172.995 44.5154V45.417H170.68V53.0074H169.571V45.417H167.244V44.5154H172.995Z" fill="#0D3486"/>
<path d="M175.468 47.4151C175.663 47.0333 175.94 46.7369 176.297 46.5257C176.662 46.3145 177.105 46.2089 177.625 46.2089V47.3542H177.333C176.09 47.3542 175.468 48.0283 175.468 49.3766V53.0074H174.36V46.3307H175.468V47.4151Z" fill="#0D3486"/>
<path d="M184.826 46.3307V53.0074H183.717V52.0205C183.506 52.3616 183.21 52.6297 182.828 52.8246C182.454 53.0114 182.04 53.1048 181.585 53.1048C181.065 53.1048 180.598 52.9993 180.184 52.7881C179.77 52.5688 179.441 52.2439 179.197 51.8134C178.962 51.3829 178.844 50.859 178.844 50.2417V46.3307H179.94V50.0955C179.94 50.7534 180.107 51.2611 180.44 51.6184C180.773 51.9677 181.228 52.1423 181.805 52.1423C182.397 52.1423 182.864 51.9596 183.206 51.5941C183.547 51.2286 183.717 50.6965 183.717 49.998V46.3307H184.826Z" fill="#0D3486"/>
<path d="M189.062 53.117C188.55 53.117 188.091 53.0317 187.685 52.8612C187.279 52.6825 186.958 52.4388 186.722 52.1302C186.487 51.8134 186.357 51.4519 186.333 51.0458H187.478C187.51 51.3788 187.665 51.6509 187.941 51.8621C188.225 52.0733 188.595 52.1789 189.049 52.1789C189.472 52.1789 189.805 52.0855 190.049 51.8987C190.292 51.7118 190.414 51.4763 190.414 51.192C190.414 50.8996 190.284 50.6844 190.024 50.5463C189.764 50.4001 189.362 50.2579 188.818 50.1198C188.323 49.9899 187.916 49.8599 187.6 49.73C187.291 49.5919 187.023 49.3929 186.796 49.133C186.576 48.8649 186.467 48.5157 186.467 48.0852C186.467 47.744 186.568 47.4313 186.771 47.147C186.974 46.8627 187.263 46.6394 187.636 46.4769C188.01 46.3064 188.436 46.2211 188.915 46.2211C189.655 46.2211 190.252 46.4079 190.706 46.7815C191.161 47.1552 191.405 47.6669 191.438 48.3167H190.329C190.304 47.9674 190.162 47.6872 189.902 47.476C189.651 47.2648 189.309 47.1592 188.879 47.1592C188.481 47.1592 188.164 47.2445 187.929 47.4151C187.693 47.5856 187.575 47.809 187.575 48.0852C187.575 48.3045 187.644 48.4872 187.782 48.6334C187.929 48.7715 188.107 48.8852 188.318 48.9746C188.538 49.0558 188.838 49.1492 189.22 49.2548C189.699 49.3848 190.089 49.5147 190.39 49.6447C190.69 49.7665 190.946 49.9533 191.157 50.2051C191.377 50.4569 191.49 50.7859 191.498 51.192C191.498 51.5575 191.397 51.8865 191.194 52.1789C190.991 52.4713 190.702 52.7028 190.329 52.8734C189.963 53.0358 189.541 53.117 189.062 53.117Z" fill="#0D3486"/>
<path d="M194.416 47.2445V51.1798C194.416 51.5047 194.485 51.7362 194.623 51.8743C194.761 52.0043 195.001 52.0692 195.342 52.0692H196.158V53.0074H195.159C194.542 53.0074 194.079 52.8652 193.77 52.5809C193.462 52.2967 193.307 51.8296 193.307 51.1798V47.2445H192.442V46.3307H193.307V44.6494H194.416V46.3307H196.158V47.2445H194.416Z" fill="#0D3486"/>
<path d="M72.1452 62.4119L37.2038 62.7774C38.3408 59.8909 39.3721 58.5505 42.8474 57.3137L66.5366 57.0659L66.0138 7.09666L71.5659 7.03848L72.1452 62.4119Z" fill="#0D3486"/>
<path d="M65.5641 56.1137L43.4295 56.3452C39.5043 56.8904 38.6695 58.5514 36.8166 61.1527L36.4818 29.1355H65.2819L65.5641 56.1137Z" fill="#0D3486"/>
<path d="M65.2679 27.8029H36.4678L36.2444 6.44561C37.5469 2.76717 38.8429 1.36648 42.3245 0.236847L64.9772 0L65.2679 27.8029Z" fill="#0D3486"/>
<path d="M0.334518 63L35.2774 62.7891C34.0929 59.9217 33.0396 58.5983 29.5444 57.4191L5.8542 57.5622L5.55235 7.59112L0 7.62455L0.334518 63Z" fill="#0D3486"/>
<path d="M6.81084 56.5941L28.9462 56.4602C32.88 56.9406 33.7422 58.5876 35.6378 61.158L35.4442 29.1398L6.64784 29.6151L6.81084 56.5941Z" fill="#0D3486"/>
<path d="M6.63979 28.2824L35.4362 27.8072L35.3072 6.44892C33.9441 2.79247 32.6252 1.41336 29.1254 0.341327L6.47191 0.478309L6.63979 28.2824Z" fill="#0D3486"/>
<path d="M47.721 33.4046C47.4889 33.421 47.2617 33.4803 47.0542 33.5857C46.6228 33.8063 46.3495 34.2196 46.1964 34.6972C46.0416 35.1747 45.9889 35.7329 46.0005 36.3553C46.0136 37.093 46.1256 37.9262 46.3067 38.7973C45.6135 38.9274 44.978 39.0937 44.4149 39.2929C43.6625 39.558 43.0368 39.8808 42.5709 40.2793C42.1049 40.6761 41.7888 41.175 41.7592 41.7415C41.7279 42.3293 42.0572 42.8497 42.5001 43.2844C42.9446 43.7174 43.5291 44.083 44.1614 44.33C44.3029 44.3876 44.4627 44.3646 44.5829 44.2691C44.7014 44.1752 44.7607 44.0237 44.7376 43.8722C44.7129 43.7224 44.6108 43.5972 44.4676 43.5429C43.9374 43.3371 43.4336 43.0193 43.0895 42.6817C42.747 42.3441 42.589 42.0049 42.6021 41.7843C42.617 41.5011 42.7684 41.2178 43.1191 40.9198C43.4682 40.6201 44.0082 40.3287 44.6948 40.0883C45.2167 39.9038 45.8243 39.7458 46.4961 39.6223C46.6903 40.3879 46.9291 41.1701 47.2106 41.9391C45.8506 44.3827 45.1295 46.5497 45.1575 48.1584C45.1739 49.148 45.5279 49.9631 46.1915 50.3945C46.6442 50.6876 47.1892 50.798 47.7573 50.6827C48.3253 50.5674 48.9197 50.2579 49.6161 49.7589C49.7429 49.6733 49.812 49.5268 49.7989 49.3736C49.7857 49.2221 49.6902 49.0888 49.5519 49.0278C49.412 48.9653 49.2506 48.9817 49.1288 49.0739C48.4817 49.5334 47.9746 49.7787 47.5893 49.8577C47.204 49.9351 46.9455 49.8791 46.6525 49.6865C46.2787 49.4444 46.0136 48.9472 46.0005 48.1452C45.9791 46.9267 46.524 45.0907 47.614 42.9732C47.7556 43.314 47.9038 43.6483 48.0602 43.9743C49.1847 46.3372 50.6007 48.272 51.9805 49.535C52.6703 50.1657 53.3503 50.63 54.0056 50.8869C54.6609 51.1438 55.3211 51.1965 55.8777 50.9132L55.9007 50.9001L55.9221 50.8869C56.3946 50.5674 56.6877 50.0389 56.8474 49.4049C57.0055 48.7726 57.0401 48.0201 56.966 47.1721C56.8194 45.4777 56.2382 43.4013 55.2339 41.2294C55.1367 41.0186 54.8865 40.9264 54.6741 41.0252C54.4633 41.1223 54.3711 41.3726 54.4699 41.585C55.438 43.6812 55.9913 45.6852 56.1263 47.2462C56.1938 48.0267 56.1559 48.6952 56.0291 49.1991C55.9056 49.6881 55.7048 49.9977 55.471 50.1673C55.1927 50.2974 54.8173 50.3007 54.3135 50.1014C53.7998 49.8989 53.1857 49.4938 52.5485 48.9109C51.2758 47.7468 49.9042 45.8861 48.8192 43.6121C48.5772 43.0999 48.3516 42.5582 48.1409 42.0066C48.3977 41.557 48.6694 41.0993 48.9723 40.6316C49.2737 40.1689 49.5832 39.726 49.8993 39.3061C50.0047 39.3045 50.1101 39.2995 50.2171 39.2995C50.6699 39.2979 51.1358 39.311 51.61 39.3357C54.134 39.4675 56.4012 39.9516 57.9884 40.6135C58.7837 40.9445 59.406 41.3216 59.7995 41.6937C60.1931 42.0659 60.3462 42.4034 60.3314 42.7146C60.3149 42.9995 60.1848 43.2761 59.8868 43.5659C59.5872 43.8558 59.1196 44.1439 58.4939 44.386C58.3474 44.437 58.2387 44.5622 58.214 44.7153C58.1877 44.8684 58.2469 45.0232 58.3704 45.1187C58.4923 45.2126 58.6553 45.234 58.7969 45.1731C59.4982 44.8997 60.063 44.5704 60.4746 44.1719C60.8846 43.7718 61.1447 43.2844 61.1727 42.7575C61.204 42.1334 60.8829 41.5587 60.3775 41.0795C59.8736 40.602 59.1706 40.192 58.3144 39.8347C56.5988 39.12 54.2575 38.6293 51.6528 38.4943C51.284 38.4745 50.9234 38.4696 50.5628 38.4647C51.2577 37.6232 51.9656 36.8905 52.6456 36.3026C53.8591 35.2587 55.0001 34.6889 55.7097 34.6626H55.7114C55.9748 34.6527 56.1724 34.7054 56.337 34.8108C56.8705 35.1582 57.3183 36.0886 56.5906 37.4092C56.5099 37.5425 56.5083 37.7089 56.5873 37.8422C56.6647 37.9756 56.8096 38.0563 56.9643 38.0514C57.1191 38.0448 57.259 37.9559 57.3282 37.8175C58.2173 36.2038 57.7382 34.7153 56.7964 34.1044H56.7947C56.4687 33.892 56.0785 33.8047 55.6801 33.8195H55.6784C54.6 33.8607 53.3832 34.5556 52.0957 35.6637C51.228 36.413 50.3356 37.3664 49.4778 38.4713C48.6579 38.4976 47.8758 38.5618 47.1464 38.6623C46.9669 37.8159 46.855 37.0173 46.8435 36.3422C46.8336 35.7774 46.8879 35.2982 46.9982 34.9557C47.1085 34.6148 47.2567 34.4304 47.4362 34.3382C47.5416 34.2855 47.6519 34.2542 47.7836 34.2443C48.215 34.2114 49.0613 34.6741 49.9454 35.4085C50.0623 35.5073 50.222 35.5353 50.3636 35.4826C50.5069 35.4316 50.6106 35.3064 50.6353 35.1566C50.66 35.0067 50.6024 34.8552 50.4855 34.7597C49.5536 33.9875 48.6595 33.3338 47.721 33.4046ZM48.8275 39.3456C48.6381 39.6157 48.4504 39.889 48.266 40.1739C48.0915 40.4423 47.9334 40.7074 47.7721 40.9725C47.6074 40.4736 47.4658 39.9796 47.339 39.4905C47.8132 39.4263 48.3105 39.3786 48.8275 39.3456ZM51.4799 40.9857C50.7818 40.9857 50.2154 41.5521 50.2154 42.2503C50.2154 42.9485 50.7818 43.5149 51.4799 43.5149C52.178 43.5149 52.7444 42.9485 52.7444 42.2503C52.7444 41.5521 52.178 40.9857 51.4799 40.9857Z" fill="#F2B94C"/>
<path d="M51.4201 17.8308C51.2 17.4011 50.9122 17.0104 50.5645 16.6758C50.2299 16.3645 49.8588 16.0963 49.459 15.8775L49.3561 15.8176C49.2337 15.7486 49.1139 15.6731 48.9993 15.591L48.9602 15.5598C48.9863 15.5338 49.0136 15.509 49.0449 15.4869C49.1868 15.3853 49.3353 15.2941 49.4902 15.2134L49.5944 15.1561H49.5957C49.9434 14.9777 50.2781 14.7759 50.5997 14.5532C50.9943 14.2758 51.3315 13.9255 51.5959 13.5218C51.73 13.3109 51.8394 13.0856 51.9214 12.8499C52.0035 12.6207 52.0647 12.3863 52.1037 12.1467C52.1493 11.8876 52.1545 11.6232 52.1207 11.3628C52.0816 11.0503 51.9501 10.7586 51.743 10.5216C51.5425 10.3093 51.2873 10.1556 51.006 10.0775C50.7677 10.0085 50.5203 9.97336 50.2716 9.97597C49.8171 9.97727 49.3666 10.0541 48.9368 10.2039C48.5149 10.3432 48.1112 10.5333 47.7375 10.7729C47.3521 11.0177 47.0057 11.3185 46.7114 11.6675C46.1358 12.372 45.7581 13.2171 45.6136 14.1143V14.1339C45.5758 14.3396 45.7087 14.5375 45.9131 14.5831C46.016 14.6066 46.1228 14.5883 46.2113 14.531C46.2986 14.4724 46.3598 14.3813 46.3806 14.2784C46.5212 13.5232 46.8598 12.8187 47.3611 12.2366C47.8586 11.6936 48.498 11.299 49.2064 11.0958C49.5436 10.9904 49.8952 10.9383 50.2494 10.9435C50.407 10.9461 50.5633 10.9708 50.713 11.0177C50.825 11.0503 50.9253 11.1102 51.006 11.1935C51.1792 11.3953 51.1245 11.8003 51.0946 11.9644C51.0594 12.1415 51.0099 12.3134 50.9461 12.4814C50.8849 12.6403 50.8042 12.7913 50.7078 12.9307C50.5112 13.2132 50.2625 13.4554 49.976 13.6442C49.683 13.837 49.3796 14.0102 49.0644 14.1625L48.929 14.2328C48.735 14.3292 48.5501 14.4399 48.3729 14.5649C48.2453 14.6548 48.1307 14.7641 48.0357 14.8879C47.9029 15.0545 47.8208 15.2551 47.7974 15.4673C47.7726 15.7004 47.826 15.9348 47.9484 16.1341C48.0409 16.2812 48.1581 16.4101 48.2961 16.5156C48.4407 16.625 48.593 16.7265 48.7506 16.8177L48.8691 16.8893C49.1855 17.069 49.4772 17.2878 49.7403 17.5404C49.9838 17.7878 50.1843 18.0743 50.3354 18.3869C50.4956 18.715 50.6115 19.0627 50.6779 19.4221C50.7078 19.5914 50.7247 19.7633 50.7286 19.9352C50.7313 20.1032 50.7156 20.2711 50.6818 20.4352C50.6258 20.7269 50.4877 20.9952 50.2833 21.2087C50.0658 21.4249 49.8002 21.5877 49.5085 21.6853C49.1829 21.7947 48.8431 21.8585 48.5006 21.8768C48.4173 21.8768 48.3274 21.8846 48.2519 21.8833L47.8495 21.8637V21.865C47.8261 21.8624 47.8027 21.8585 47.7805 21.8533L47.7323 21.8468L47.4641 21.8038C46.7622 21.6541 46.0994 21.3598 45.5173 20.9392C44.8975 20.5107 44.344 19.9925 43.8739 19.4039C42.8921 18.2006 42.2866 16.7344 42.1355 15.1885L42.1082 14.8981L42.1056 14.5882C42.0991 14.441 42.1056 14.2913 42.1056 14.1324L42.1147 13.8603L42.1537 13.4201L42.172 13.2886C42.1928 13.1336 42.2136 12.9761 42.2436 12.812C42.3855 12.0202 42.6199 11.2467 42.939 10.5071C43.0275 10.317 42.9494 10.0904 42.7619 9.99401C42.5756 9.89894 42.3465 9.96796 42.2423 10.1503C41.8034 10.916 41.4688 11.7363 41.2487 12.5906C41.0195 13.4618 40.9205 14.3629 40.9531 15.2627C40.9856 16.1781 41.1654 17.0818 41.4857 17.9387C41.8047 18.7851 42.2462 19.5808 42.7957 20.2996C43.3413 21.0131 43.9964 21.6369 44.7347 22.1487L44.8102 22.1995C44.8766 22.2463 44.943 22.2906 45.0173 22.3375L45.2985 22.4964H45.2972C45.4587 22.5901 45.6254 22.6748 45.7973 22.7477L45.9588 22.8219C46.0004 22.8414 46.0408 22.8597 46.0877 22.8766L46.5525 23.0394C46.632 23.0641 46.7127 23.0837 46.7908 23.1019L46.9028 23.1292L46.9979 23.1514H46.9992C47.0773 23.1735 47.1568 23.1904 47.2375 23.2009C47.5383 23.249 47.8417 23.2725 48.1464 23.2738C48.7663 23.2751 49.3822 23.1657 49.963 22.9508C50.4422 22.775 50.8745 22.4899 51.2248 22.1174C51.5895 21.719 51.8317 21.2228 51.9228 20.6889C51.9736 20.4311 51.9958 20.168 51.9879 19.9063C51.9788 19.6614 51.9489 19.4193 51.9007 19.1796C51.803 18.7095 51.6415 18.2566 51.4201 17.8308Z" fill="white"/>
<path d="M60.2552 14.0871V14.0806C60.2174 13.9725 60.1757 13.8658 60.1367 13.7577L60.0833 13.6197C60.026 13.4777 59.9609 13.3397 59.8893 13.2043L59.8619 13.1509C59.7056 12.8579 59.5285 12.5753 59.3319 12.3071C58.8449 11.6586 58.3305 11.2106 57.7667 10.945C57.4203 10.7757 57.0453 10.6767 56.6611 10.6546C56.2887 10.6337 55.915 10.6793 55.5582 10.7913C54.894 11.014 54.2977 11.3994 53.821 11.9112C53.3666 12.3878 52.9915 12.9347 52.7103 13.5311C52.4199 14.1249 52.235 14.7656 52.1647 15.4232C52.1503 15.5886 52.1451 15.754 52.149 15.9207C51.8639 15.6498 51.5553 15.4037 51.2271 15.1876C51.05 15.073 50.8117 15.1198 50.6919 15.2943C50.5708 15.4675 50.6099 15.7071 50.7804 15.8335C51.2323 16.1577 51.6334 16.5483 51.9706 16.9911C52.136 17.2099 52.2832 17.4404 52.4108 17.6839C52.5384 17.9339 52.6517 18.1917 52.7506 18.4561L52.8392 18.6762L52.8483 18.6983C52.8691 18.753 52.8965 18.8051 52.9277 18.8532L52.9525 18.8871C52.9616 18.8988 52.9707 18.9092 52.9798 18.9197C53.015 18.9561 53.0553 18.9887 53.0996 19.0134C53.2403 19.1007 53.42 19.1007 53.5606 19.0134C53.6856 18.9483 53.7742 18.8285 53.7989 18.6892C53.8067 18.6501 53.8093 18.6097 53.808 18.5707V18.5381C53.8028 18.5017 53.7963 18.4639 53.7846 18.4287C53.7768 18.3975 53.7676 18.3727 53.7572 18.3428L53.6036 17.9274C53.5085 17.663 53.4265 17.3948 53.3601 17.1226C53.2207 16.6069 53.1777 16.0691 53.2337 15.5378C53.308 15.0105 53.4733 14.5 53.722 14.0299C53.9643 13.5533 54.2807 13.1184 54.6596 12.742C55.0086 12.3865 55.4383 12.1222 55.9123 11.9724C56.1246 11.9125 56.3447 11.8904 56.5634 11.9073C56.7835 11.9282 56.9971 11.9907 57.1924 12.0922C57.557 12.2798 57.9073 12.6144 58.238 13.0871C58.3839 13.3059 58.5141 13.5338 58.6287 13.7695L58.6535 13.8255C58.699 13.9205 58.7381 14.0169 58.772 14.1159C58.7902 14.1693 58.8071 14.2226 58.8279 14.2812C58.8488 14.3398 58.8761 14.4271 58.897 14.4935C59.0298 14.9857 59.0741 15.4962 59.0259 16.004C58.9764 16.5314 58.8553 17.0497 58.6691 17.5458C58.5779 17.7985 58.4699 18.0459 58.3474 18.2842C58.2928 18.3922 58.2289 18.5068 58.1534 18.641C58.1183 18.6996 58.0766 18.7595 58.0284 18.8285C57.9932 18.878 57.9594 18.9287 57.9333 18.9691V18.9704C57.626 19.408 57.2601 19.8012 56.8447 20.1372C56.4137 20.4797 55.941 20.7674 55.4397 20.9953C55.1883 21.1138 54.9292 21.2167 54.6649 21.3053C54.3979 21.3964 54.127 21.4706 53.851 21.5305C53.6544 21.5709 53.5202 21.7545 53.5411 21.955C53.5619 22.1556 53.7312 22.3079 53.933 22.3079H53.9474C54.2664 22.2962 54.5854 22.2598 54.8993 22.1985C55.2144 22.14 55.5243 22.0605 55.8278 21.9615C56.4437 21.7597 57.0284 21.4745 57.5649 21.1125C58.1131 20.7388 58.6014 20.283 59.0116 19.7608C59.0363 19.727 59.0611 19.6944 59.091 19.6567C59.1627 19.5642 59.2369 19.4691 59.3059 19.3624C59.4049 19.21 59.4895 19.0733 59.5611 18.9431V18.9444C59.7252 18.6592 59.8697 18.3649 59.9948 18.0602C60.2487 17.4429 60.4089 16.7905 60.4714 16.1264C60.5313 15.4389 60.4583 14.7461 60.2552 14.0871Z" fill="white"/>
<path d="M51.2727 8.67C51.4551 8.97602 51.6829 9.24949 51.9486 9.48517C52.2324 9.72999 52.558 9.91881 52.9096 10.0451C53.2364 10.1558 53.5789 10.2144 53.9227 10.2157H54.0139C54.3785 10.2079 54.7405 10.1519 55.0908 10.0503C55.4567 9.93834 55.7966 9.75604 56.0909 9.51382C56.6704 9.05155 57.0675 8.39912 57.2134 7.67252C57.2381 7.50845 57.1587 7.34567 57.0115 7.26492C56.8657 7.18549 56.6847 7.20502 56.5597 7.31571C56.4724 7.39254 56.3904 7.46937 56.3096 7.54489C56.1716 7.67251 56.0414 7.79361 55.906 7.90169H55.9073C55.7041 8.06837 55.4906 8.22073 55.2666 8.35876L55.2353 8.377C55.014 8.50721 54.8056 8.62962 54.5842 8.73379C54.3733 8.83797 54.148 8.90959 53.9162 8.94345C53.6883 8.9734 53.4552 8.96298 53.2313 8.90959C53.0034 8.86011 52.7859 8.76895 52.5906 8.63873C52.1674 8.34835 51.8262 7.95118 51.6048 7.4876L51.5931 7.46547V7.46416C51.5019 7.28446 51.2884 7.20372 51.1009 7.27665C50.9133 7.34957 50.8105 7.55401 50.8652 7.74805C50.9589 8.0723 51.0956 8.38351 51.2727 8.67Z" fill="white"/>
<path d="M53.5023 8.14896C53.5426 8.18803 53.5869 8.22319 53.6338 8.25444L53.652 8.26616L53.6768 8.28179C53.7145 8.30783 53.7549 8.32997 53.7966 8.3508C53.8591 8.38075 53.9281 8.39638 53.9984 8.39638C54.0297 8.39638 54.0622 8.39378 54.0935 8.38727C54.1403 8.37685 54.1859 8.36383 54.2302 8.3482L54.2888 8.32867C54.3357 8.31044 54.38 8.2896 54.4229 8.26486C54.5128 8.21798 54.5909 8.15157 54.6534 8.07213C54.7589 7.93149 54.7758 7.74268 54.6977 7.58643L54.6782 7.54996L54.6664 7.52652L54.63 7.40542L54.5636 7.23743H54.5623C54.5284 7.14889 54.488 7.06424 54.4438 6.9809L54.3786 6.89626C54.3031 6.81943 54.2002 6.77645 54.0922 6.77776C53.9854 6.77776 53.8838 6.82073 53.8096 6.89626C53.7406 6.96788 53.6781 7.0421 53.6195 7.12154L53.527 7.25306L53.4567 7.37156L53.4359 7.395L53.4046 7.43146V7.43407C53.2939 7.56689 53.2679 7.7505 53.3369 7.90937C53.3747 8.00053 53.4306 8.08125 53.5023 8.14896Z" fill="white"/>
<path d="M25.9599 19.3832C25.8297 19.253 25.6562 19.18 25.4711 19.18C25.3855 19.18 25.301 19.1979 25.2235 19.2275C25.1969 19.1754 25.1657 19.1267 25.1229 19.0839L24.4536 18.4139C24.2639 18.224 23.9741 18.2003 23.7577 18.3398L23.3326 17.9142L25.0638 16.1813L25.1332 16.2508C25.2634 16.381 25.4473 16.4332 25.626 16.3903C26.223 16.2496 26.2999 16.2895 26.4509 16.4424C26.6244 16.6161 26.5706 17.1482 26.5192 17.3775C26.5163 17.388 26.5192 17.3984 26.5174 17.4071C26.5174 17.4175 26.5145 17.4262 26.5157 17.4366C26.5157 17.4557 26.5203 17.4737 26.5261 17.4928C26.5278 17.5003 26.529 17.5061 26.5319 17.5136C26.5423 17.5391 26.5573 17.5611 26.5764 17.5802C26.5764 17.5802 26.5782 17.5831 26.5793 17.5848L27.2133 18.2194C27.2549 18.2611 27.311 18.2849 27.3701 18.2849C27.4291 18.2849 27.4857 18.2611 27.5268 18.2194L29.4282 16.3162C29.5155 16.2287 29.5155 16.088 29.4282 16.0017L28.7942 15.3671C28.7942 15.3671 28.7925 15.3671 28.7913 15.3654C28.7497 15.3254 28.6953 15.3046 28.6374 15.3046C28.6224 15.3046 28.6079 15.3046 28.5918 15.3063C28.3667 15.3538 27.8467 15.3955 27.672 15.2218C27.5639 15.1135 27.5211 14.8437 27.5581 14.4986C27.5801 14.2849 27.5078 14.0776 27.3579 13.9277L26.0385 12.6069C26.0385 12.6069 26.0298 12.5982 26.0234 12.5936C26.0044 12.5774 24.0128 10.9543 22.0842 12.8842C21.9968 12.9717 21.9968 13.1124 22.0842 13.1986L22.4012 13.516C22.4694 13.5843 22.5712 13.6005 22.6574 13.5576C23.2544 13.2594 23.7651 13.1755 24.1336 13.3115C24.3367 13.3874 24.461 13.5148 24.5293 13.608L23.8288 14.3092C23.6523 14.4858 23.6523 14.7719 23.8288 14.9467L23.8982 15.0162L22.4897 16.4262L22.3341 16.121C22.3225 16.0973 22.3057 16.0753 22.2855 16.0573L17.0441 11.3105C16.9568 11.2306 16.822 11.2346 16.7376 11.318L15.7779 12.2786C15.6935 12.3614 15.6906 12.4964 15.7704 12.5855L20.512 17.8316C20.5299 17.8524 20.5519 17.8686 20.5756 17.8802L20.8804 18.036L20.6566 18.2601C20.4107 18.1784 20.1296 18.2317 19.9353 18.4274L15.9104 22.4563C15.6351 22.732 15.6351 23.1795 15.9104 23.454L16.6317 24.1761C16.7648 24.3092 16.9429 24.3833 17.1309 24.3833C17.3189 24.3833 17.4965 24.3092 17.6301 24.1761L21.655 20.1471C21.8505 19.9514 21.9037 19.67 21.8222 19.4251L22.3688 18.8779L22.7939 19.3035C22.6545 19.52 22.6783 19.8119 22.868 20L23.5372 20.67C23.58 20.7128 23.6292 20.7458 23.6807 20.7707C23.6512 20.8495 23.6333 20.9323 23.6333 21.0186C23.6333 21.2038 23.7056 21.3776 23.8363 21.5078L27.1727 24.8476C27.3075 24.9826 27.4839 25.0492 27.6615 25.0492C27.8391 25.0492 28.0155 24.9826 28.1503 24.8476L29.2979 23.6989C29.5675 23.429 29.5675 22.9919 29.2979 22.722L25.9615 19.3822L25.9599 19.3832ZM28.9822 23.3867L27.8346 24.5355C27.7386 24.6316 27.583 24.6316 27.4864 24.5355L24.1499 21.1957C24.1042 21.1499 24.0776 21.0874 24.0776 21.022C24.0776 20.9565 24.1031 20.8946 24.1499 20.8482L25.2976 19.6994C25.3433 19.6537 25.4057 19.6271 25.4711 19.6271C25.5365 19.6271 25.5984 19.6525 25.6446 19.6994L28.9811 23.0393C29.0771 23.1354 29.0771 23.2911 28.9811 23.3878L28.9822 23.3867ZM21.4167 19.6502C21.4167 19.7197 21.3901 19.7851 21.3398 19.8355L17.3149 23.8644C17.2154 23.964 17.0442 23.964 16.9465 23.8644L16.2251 23.1424C16.1765 23.0937 16.1482 23.0266 16.1482 22.9571C16.1482 22.8876 16.1748 22.8222 16.2251 22.7718L20.25 18.7429C20.2986 18.6942 20.3657 18.6659 20.4351 18.6659C20.5045 18.6659 20.5699 18.6925 20.6202 18.7429L21.3415 19.4649C21.3901 19.5136 21.4185 19.5807 21.4185 19.6502H21.4167ZM21.5619 19.0573L21.0257 18.5205L21.2981 18.2478L21.5943 18.3989C21.6267 18.4151 21.6608 18.4227 21.6949 18.4227C21.7511 18.4227 21.8077 18.4007 21.8506 18.359L22.0547 18.5634L21.5631 19.0555L21.5619 19.0573ZM21.9576 16.359L22.3839 17.1963L21.6522 17.9288L20.8157 17.502L16.2431 12.4442L16.9037 11.783L21.9576 16.3602V16.359ZM24.9638 13.8038C25.0263 13.7413 25.0453 13.6469 25.0124 13.5652C25.0049 13.5461 24.8255 13.1026 24.3003 12.9011C23.837 12.7233 23.2666 12.787 22.602 13.091L22.5574 13.0464C24.1035 11.6782 25.5989 12.8258 25.7296 12.9295L27.0415 14.2427C27.0965 14.2977 27.1214 14.373 27.1138 14.4517C27.0768 14.7986 27.0901 15.2687 27.3551 15.5351C27.5326 15.7129 27.8039 15.7754 28.0538 15.7899L27.0097 16.835C26.9993 16.5802 26.9403 16.3058 26.7621 16.128C26.5684 15.9323 26.3804 15.8599 26.1432 15.8599C25.9697 15.8599 25.7701 15.8987 25.5197 15.9578C25.4913 15.9636 25.4618 15.9578 25.4427 15.937L24.1395 14.6237L24.9597 13.8026L24.9638 13.8038ZM27.3683 17.7481L27.0484 17.4279L28.6357 15.839L28.9556 16.1592L27.3683 17.7481ZM24.7486 15.8685L23.0174 17.6015L22.8132 17.3971C22.8797 17.3288 22.8959 17.2251 22.8531 17.1406L22.7021 16.8441L24.2124 15.3323L24.7487 15.8691L24.7486 15.8685ZM22.1647 18.0462L22.4997 17.7109L23.4338 18.6461L23.0989 18.9813L22.1647 18.0462ZM23.1822 19.6871C23.1377 19.6425 23.1377 19.5713 23.1822 19.5285L23.9787 18.7311C24.0007 18.7091 24.0291 18.6987 24.0586 18.6987C24.0881 18.6987 24.1164 18.7091 24.1384 18.7311L24.8076 19.4011C24.8522 19.4457 24.8522 19.5169 24.8076 19.5597L24.0094 20.3588C23.9666 20.4034 23.8937 20.4034 23.8509 20.3588L23.1817 19.6888L23.1822 19.6871Z" fill="#F2B94C"/>
<path d="M17.7518 3.70176C15.2873 3.70176 13.0102 5.01635 11.778 7.15048C10.5457 9.28526 10.5457 11.9143 11.778 14.0491C13.0103 16.1833 15.2873 17.4978 17.7518 17.4978C17.9253 17.4978 18.0652 17.3579 18.0652 17.1845C18.0652 17.011 17.9253 16.8711 17.7518 16.8711C16.3203 16.8711 15.1074 14.1731 15.0334 10.9137L24.3366 10.9132C24.4195 10.9132 24.4995 10.8802 24.5583 10.8214C24.6171 10.7627 24.65 10.6827 24.65 10.5998C24.6482 8.77083 23.9209 7.01758 22.6274 5.72412C21.3339 4.43067 19.5808 3.70342 17.7517 3.70161L17.7518 3.70176ZM24.0073 10.2864H21.0971C21.0447 7.78546 20.3774 5.66889 19.3868 4.55243C20.6632 4.8993 21.7968 5.64008 22.6268 6.67006C23.4564 7.69949 23.9397 8.96544 24.0073 10.2864ZM17.7518 4.32847C19.1834 4.32847 20.3963 7.02646 20.4703 10.2858L15.0332 10.2864C15.1073 7.02644 16.3203 4.32847 17.7518 4.32847ZM16.1169 4.55188C15.1262 5.66834 14.4589 7.78477 14.4066 10.2859L11.4964 10.2865C11.564 8.96544 12.0473 7.69957 12.8768 6.67025C13.707 5.64022 14.8405 4.89939 16.1169 4.55262L16.1169 4.55188ZM16.1169 16.6471C14.8405 16.3002 13.7069 15.5594 12.8769 14.5294C12.0473 13.5 11.564 12.2342 11.4964 10.9132H14.4067C14.459 13.4142 15.1262 15.5306 16.1169 16.6471Z" fill="#F2B94C"/>
<path d="M28.1959 39.4403C28.2033 39.4344 28.2104 39.4283 28.217 39.4216L30.0985 37.6007C30.1552 37.5459 30.1866 37.4701 30.1855 37.3913C30.1843 37.3125 30.1504 37.2377 30.0924 37.1846L25.8144 33.2833C25.7573 33.2314 25.6834 33.2055 25.6038 33.2093C25.5265 33.2142 25.4546 33.2504 25.4043 33.3094C25.3916 33.3247 24.0919 34.8482 22.8465 35.8071C21.6148 36.7551 20.0209 37.3133 20.0049 37.3188C19.9948 37.3222 19.9849 37.3264 19.9752 37.331C18.0134 38.2676 17.4741 40.1309 17.3616 40.6358L15.7465 41.7325C14.6191 42.3082 14.5388 43.7158 14.5361 43.7758C14.5355 43.7847 14.5355 43.7938 14.5361 43.803C14.5791 44.7139 13.6676 45.6012 13.6518 45.6164L11.7601 47.5495C11.6631 47.6486 11.6514 47.803 11.7323 47.9157L14.7748 52.1534C14.8257 52.2242 14.9058 52.2678 14.993 52.272C14.9976 52.2722 15.0023 52.2723 15.0069 52.2723C15.089 52.2723 15.1672 52.2371 15.2214 52.1753L16.708 50.4815C16.9698 50.2068 17.4147 50.0703 17.6553 50.0134C17.666 50.0254 17.6746 50.0378 17.6858 50.0496L18.009 50.3766C18.0781 50.4593 18.2038 50.5436 18.3715 50.5564C18.3862 50.5575 18.401 50.5581 18.4159 50.5581C18.6392 50.5581 18.8748 50.4315 19.1183 50.18L19.4617 49.821C19.4932 49.9795 19.5672 50.1343 19.7028 50.274L20.0058 50.5807C20.0732 50.6609 20.1952 50.7425 20.3574 50.7547C20.3717 50.7559 20.386 50.7564 20.4005 50.7564C20.6148 50.7564 20.8402 50.6357 21.0721 50.3963L21.2685 50.191C21.3097 50.3005 21.3742 50.4065 21.4698 50.505L21.7728 50.8116C21.8402 50.8916 21.9621 50.9733 22.1241 50.9856C22.1383 50.9866 22.1526 50.9872 22.1673 50.9872C22.3814 50.9872 22.6068 50.8667 22.8385 50.6272L23.0531 50.4031C23.0934 50.5238 23.1583 50.6359 23.2539 50.7343L23.5309 51.0151C23.5964 51.0921 23.7137 51.1701 23.869 51.1819C23.8825 51.1829 23.8964 51.1834 23.9099 51.1834C24.113 51.1834 24.3255 51.0705 24.5425 50.8463L25.4997 49.847C25.5823 49.7656 25.7481 49.5234 25.8357 48.8533L25.9421 48.0406C26.3946 48.0052 26.7708 47.6587 26.8308 47.2017C26.8553 47.0132 26.8216 46.8312 26.7474 46.6703C27.1129 46.5415 27.3918 46.2173 27.4443 45.8146C27.4755 45.5753 27.4228 45.3444 27.3099 45.1502C27.6353 45.004 27.8786 44.7 27.9273 44.3275C27.9583 44.0882 27.9054 43.8574 27.7927 43.6633C28.1182 43.5172 28.3615 43.2132 28.4103 42.8409C28.4466 42.5618 28.3724 42.285 28.2007 42.0619C28.029 41.8386 27.7807 41.6956 27.5014 41.659L27.1651 41.6151C27.3939 40.1083 28.1885 39.4462 28.1959 39.4403ZM17.4206 49.4838C17.1027 49.5702 16.6161 49.7498 16.2868 50.0958L15.0296 51.5282L12.3362 47.7773L14.0531 46.0225C14.0983 45.9795 15.1518 44.9583 15.107 43.7925C15.1158 43.6749 15.2154 42.6351 16.0189 42.2349C16.0303 42.2292 16.0414 42.2227 16.052 42.2155L17.7756 41.0453C17.7806 41.0419 17.7857 41.0386 17.7905 41.035L18.2912 40.695C18.2988 40.6901 19.0448 40.2138 19.7465 40.2813L21.5307 40.5145C21.6114 40.5355 22.1058 40.6876 22.05 41.2534C22.0395 41.3994 21.9634 41.8724 21.3835 41.8359L19.4263 41.695C19.2818 41.6857 19.1476 41.7883 19.124 41.9341C19.0389 42.4605 18.6365 43.8877 17.8088 44.1685C17.6593 44.2191 17.5794 44.3813 17.63 44.5306C17.6806 44.68 17.8432 44.7604 17.9921 44.7093C18.1981 44.6395 18.3801 44.5275 18.5417 44.3893L18.1524 47.3709C18.1307 47.6309 18.0304 48.1152 17.848 48.3151C17.6397 48.5596 17.3747 49.0286 17.4206 49.4838ZM25.2692 48.7794C25.2058 49.2641 25.1066 49.4252 25.0915 49.4474L25.091 49.448L24.1309 50.4501C24.028 50.5565 23.9606 50.5933 23.929 50.606L23.6617 50.3351C23.6192 50.2915 23.4905 50.1585 23.6706 49.8021C23.6821 49.7798 23.6889 49.7568 23.6939 49.7336L23.8827 49.5364C23.9691 49.4516 24.1466 49.1943 24.2417 48.4663L24.3234 47.8424C24.3605 47.852 24.3969 47.8638 24.4359 47.8689L25.3722 47.9913L25.2692 48.7794ZM26.2642 47.1274C26.2359 47.3437 26.0369 47.5017 25.8144 47.4729L24.51 47.3024C24.2907 47.2736 24.1351 47.072 24.1639 46.8529C24.19 46.6538 24.3605 46.5038 24.5612 46.5038C24.5787 46.5038 24.5964 46.5049 24.6141 46.5072L24.8355 46.5361L24.8361 46.5363L25.9187 46.6779C26.1376 46.7069 26.2928 46.9085 26.2642 47.1274ZM26.8776 45.7406C26.8433 46.001 26.6031 46.1925 26.3369 46.1567L24.9094 45.9702C24.7818 45.9534 24.6682 45.8879 24.5899 45.7859C24.5115 45.6836 24.4774 45.5571 24.4942 45.4291C24.5256 45.1894 24.7308 45.0086 24.9716 45.0086C24.9926 45.0086 25.0139 45.0099 25.0352 45.0128L26.4624 45.1993C26.7259 45.234 26.9122 45.4767 26.8776 45.7406ZM27.3608 44.2538C27.3265 44.5144 27.0872 44.705 26.8193 44.6701L25.3931 44.4837C25.265 44.467 25.1515 44.4015 25.0729 44.2993C24.9943 44.1971 24.9602 44.0703 24.9769 43.9421C25.0082 43.7025 25.2136 43.5218 25.455 43.5218C25.4759 43.5218 25.4972 43.5231 25.5187 43.526L26.9452 43.7124C27.2086 43.747 27.3948 43.9899 27.3608 44.2538ZM27.4272 42.2254C27.5551 42.2421 27.669 42.3076 27.7476 42.41C27.8262 42.5123 27.8605 42.6391 27.8437 42.767C27.8095 43.0272 27.5698 43.2176 27.3019 43.183L27.0196 43.146C27.0192 43.146 27.019 43.1458 27.0187 43.1458L25.8755 42.9964C25.7478 42.9796 25.6337 42.9141 25.5551 42.8119C25.4765 42.7097 25.4424 42.5831 25.4592 42.4552C25.4906 42.2155 25.696 42.0346 25.9374 42.0346C25.9583 42.0346 25.9796 42.036 26.0009 42.0388L27.4272 42.2254ZM26.5985 41.541L26.075 41.4727C25.4911 41.3963 24.9674 41.813 24.893 42.3813C24.8627 42.6139 24.9132 42.8428 25.0291 43.0425C24.703 43.1885 24.4593 43.4952 24.4108 43.8681C24.3805 44.1007 24.431 44.3297 24.5467 44.5294C24.2206 44.6751 23.9771 44.9816 23.9282 45.3549C23.8956 45.6043 23.956 45.8495 24.0906 46.0583C23.8296 46.2043 23.6388 46.4653 23.5977 46.779C23.5627 47.0463 23.6411 47.3026 23.7946 47.5003C23.7932 47.507 23.7908 47.5131 23.79 47.52L23.6758 48.3922C23.6112 48.8847 23.5132 49.076 23.4833 49.1244L23.4831 49.1246C23.4801 49.1295 23.478 49.1328 23.4764 49.1351C23.4759 49.1354 23.4755 49.136 23.4749 49.1366L22.4271 50.2308C22.2943 50.3681 22.2132 50.4037 22.1817 50.4128L21.8779 50.1054C21.5804 49.7989 22.0496 49.2321 22.0492 49.2321C22.3942 48.8539 22.4644 48.1093 22.4698 48.0393L22.8393 45.2127C22.8597 45.0564 22.7494 44.913 22.5931 44.8925C22.4382 44.8715 22.2935 44.9823 22.2729 45.1386L21.9019 47.9786C21.8817 48.2203 21.7888 48.6698 21.6207 48.8546C21.5311 48.9599 21.4302 49.1094 21.3508 49.2816C21.3479 49.2843 21.3443 49.2853 21.3416 49.2879L20.6603 49.9999C20.5271 50.1373 20.446 50.1728 20.4145 50.1819L20.1107 49.8743C19.8143 49.5687 20.2794 49.005 20.2891 48.9934C20.3272 48.9485 20.3489 48.895 20.3551 48.8405C20.4431 48.6747 20.5444 48.3863 20.6099 47.8872L21.0393 44.6012C21.0597 44.4449 20.9495 44.3016 20.7932 44.281C20.635 44.2599 20.4935 44.3709 20.473 44.5272L20.0435 47.8131C19.9731 48.3511 19.8642 48.5544 19.8332 48.6034C19.8318 48.6043 19.8322 48.6043 19.832 48.6053C19.8297 48.6085 19.828 48.611 19.8271 48.6127C19.8259 48.6138 19.8248 48.6152 19.8233 48.6167L18.7069 49.7838C18.5464 49.9493 18.4549 49.9799 18.4254 49.9856L18.0937 49.65C17.7648 49.311 18.2763 48.693 18.2759 48.693C18.6399 48.2948 18.714 47.5066 18.7197 47.4318L19.161 44.0533C19.1749 43.946 19.1265 43.8456 19.0446 43.7862C19.3787 43.2473 19.5564 42.6255 19.6354 42.2829L21.3445 42.4059C21.6959 42.4283 21.9904 42.3385 22.217 42.1376C22.5798 41.8163 22.6169 41.3413 22.619 41.3002C22.7055 40.4277 22.0197 40.0388 21.6449 39.955C21.6365 39.9531 21.6282 39.9516 21.6196 39.9507L19.8113 39.7144C19.1019 39.6449 18.4122 39.972 18.1204 40.134C18.397 39.4494 18.9915 38.4395 20.2076 37.8535C20.3921 37.7884 21.9407 37.2255 23.1949 36.2602C24.2113 35.4777 25.229 34.3723 25.6451 33.9026L29.483 37.4024L27.8283 39.004C27.7063 39.1054 26.8462 39.8797 26.5985 41.541Z" fill="white"/>
</svg>
